<?xml version="1.0" encoding="UTF-8" standalone="no"?><!DOCTYPE svg PUBLIC "-//W3C//DTD SVG 1.1//EN" "http://www.w3.org/Graphics/SVG/1.1/DTD/svg11.dtd"><svg width="100%" height="100%" viewBox="0 0 1920 1080" version="1.1" xmlns="http://www.w3.org/2000/svg" xmlns:xlink="http://www.w3.org/1999/xlink" xml:space="preserve" xmlns:serif="http://www.serif.com/" style="fill-rule:evenodd;clip-rule:evenodd;stroke-linecap:round;stroke-linejoin:round;stroke-miterlimit:1.5;"><g><g><g><g><g><g><path d="M1743.55,798.591c-0.577,6.213 -0.713,11.794 1.229,13.624c9.6,-19.575 -0.042,13.6 -0.16,14.342c6.263,-6.714 13.273,-12.512 21.033,-17.404c6.624,0.026 -9.836,15.181 -11.134,16.827c-5.584,7.036 -6.892,4.433 -8.36,14.104c5.028,-3.673 11.333,-11.27 17.816,-12.596c-4.942,1.009 -18.29,21.745 -18.867,28.183c2.144,-1.012 17.189,-15.343 17.265,-6.889c-0.002,-0.404 -9.765,8.609 -7.088,6.892c4.949,-0.611 16.093,-4.75 15.561,2.126c-17.113,14.971 -24.427,-1.471 -26.032,19.931c4.467,-1.525 18.377,-20.29 8.552,-3.374c3.028,-3.811 6.637,-5.521 10.834,-5.135c4.648,3.077 -12.038,9.537 -12.124,9.576c4.48,-0.881 38.921,-19.365 40.838,-13.639c0.262,0.775 -0.189,1.703 -1.062,2.702c25.478,-1.578 71.656,-0.419 77.704,-0.77c-5.746,-1.254 -25.332,1.009 -23.305,-5.736c-0.795,2.642 18.854,-5.238 24.605,-7.571c-13.477,0.613 -92.096,9.948 -93.268,6.037c0.96,-2.834 2.989,-4.43 6.048,-4.831c-3.99,-0.535 -6.546,-2.541 -7.647,-6.035c1.073,-3.573 20.354,3.416 22.873,3.814c-19.622,-9.201 34.504,-4.485 43.304,-5.29c-5.455,-0.818 -39.647,0.205 -39.637,-5.82c0.011,-9.948 89.878,18.519 91.9,-10.957c-4.457,0 -41.787,10.184 -41.383,10.818c-2.622,-4.097 16.84,-10.454 19.708,-11.503c-3.861,0.179 -90.101,1.243 -82.527,-9.104c-0.2,0.773 54.349,3.594 60.596,3.468c-19.418,-7.513 18.565,-2.307 21.803,-3.054c-22.356,-10.554 17.076,-4.572 21.9,-1.746c-1.025,-36.798 -61.621,13.081 -71.111,-1.644c1.995,-2.351 4.312,-4.186 6.939,-5.541c-5.891,1.331 -11.881,2.207 -17.997,2.511c6.549,-6.176 14.584,-9.136 24.11,-8.884c-5.775,-0.574 -39.542,0.967 -36.486,-9.186c6.221,-3.861 13.131,-2.805 20.726,3.164c-3.395,-2.891 -3.707,-5.458 -0.944,-7.686c2.593,-0.721 13.233,6.596 11.398,5.757c12.641,5.767 33.466,3.245 46.818,1.885c-7.173,-2.971 -13.774,-6.767 -19.798,-11.38c10.835,0.002 20.933,2.563 30.279,7.681c8.071,-3.676 0.346,-2.425 6.108,-9.64c-2.583,-19.923 -59.553,6.025 -62.536,-3.159c6,-4.238 12.761,-6.983 20.274,-8.234c-11.883,-0.107 -23.559,-1.573 -35.015,-4.399c5.505,-3.824 11.684,-4.878 18.526,-3.164c0,-15.016 26.569,2.278 49.114,3.77c40.714,-2.06 -33.235,-36.596 -39.178,-19.509c1.363,0.22 2.338,0.359 2.755,0.406c-1.471,-0.189 -2.517,0.467 -3.143,1.966c0.002,-0.886 0.144,-1.667 0.388,-2.372c-3.88,-0.621 -10.937,-1.909 -17.473,-3.699c-7.911,3.424 -15.189,8.693 -21.263,13.328c-6.742,5.148 -12.952,10.847 -19.585,16.111c-2.149,1.704 -4.349,3.193 -6.582,4.57c-8.214,5.046 -17.038,8.189 -26.75,11.558c-3.702,1.282 -7.165,2.975 -10.549,4.8" style="fill:#7dab87;fill-rule:nonzero;"/><g><path d="M160.422,917.692c0.695,-2.314 -8.451,-4.157 -19.97,-5.515c-1.888,0.548 -3.77,1.111 -5.671,1.63c-19.136,5.196 -38.745,8.806 -57.177,15.9c32.716,1.247 71.999,-4.148 72.015,6.996c-2.168,2.402 -4.774,3.676 -7.801,3.872c1.499,0.415 3.075,0.852 4.697,1.306c3.256,-1.767 6.814,-2.139 10.691,-1.072c0,-9.081 11.188,-3.615 21.871,0.133c-0.165,-0.718 -0.438,-1.546 -0.836,-2.511c1.331,0.952 2.425,2.074 3.305,3.348c0.789,0.251 1.565,0.479 2.334,0.694c0.665,-4.05 1.664,-8.019 3.03,-11.909c0.535,4 0.721,8.931 2.346,12.945c2.2,0.178 4.126,-0.084 5.623,-1.002c0.679,-0.592 1.329,-1.203 1.883,-1.895c0.88,-1.41 1.399,-3.369 1.399,-6.092c-0.912,-9.771 -34.38,0 -34.375,-3.828c0.427,-1.135 1.148,-1.63 2.17,-1.483c-2.081,-0.244 -27.748,-5.125 -23.588,-9.878c1.536,5.012 33.886,5.358 41.388,5.678c-7.838,-2.121 -15.375,-5.007 -22.607,-8.677c2.348,-0.821 4.603,-0.975 6.771,-0.509c-1.631,-1.429 -2.43,-3.274 -2.339,-5.576c-0.133,0.163 25.83,1.969 19.675,10.651c3.785,2.171 8.103,5.209 12.447,6.053c0.06,-4.616 0.639,-8.084 0.259,-12.674c-4.517,0.482 -16.382,-2.014 -19.748,-6.187c-1.601,-0.171 -6.517,-2.032 -11.241,-4.378c-6.619,2.231 -13.249,4.425 -19.926,6.496c7.33,2.462 14.025,5.327 13.375,7.484" style="fill:#7dab87;fill-rule:nonzero;"/><g><path d="M702.817,811.772c-11.637,0 -22.086,1.306 -33.275,4.121c-20.849,5.254 -41.865,15.798 -63.603,16.526c-12.342,0.417 -24.089,-4.794 -35.555,-8.105c-11.244,-3.248 -23.926,-5.503 -35.618,-7.008c-20.705,-2.655 -43.986,-2.574 -64.843,-1.79c-21.976,0.823 -43.349,3.261 -63.509,11.254c-41.71,16.539 -87.007,25.145 -128.474,42.445c-19.499,8.137 -38.114,13.639 -58.203,18.833c-6.129,6.475 -15.314,16.505 -15.634,19.868c1.746,-0.564 32.234,-13.134 30.386,-14.24c2.792,1.67 -2.331,6.103 -3.731,7.461c5.073,-3.403 10.62,-5.49 16.631,-6.25c-1.932,4.396 -5.34,7.023 -10.219,7.891c13.294,-2.522 -17.236,5.654 -22.175,8.368c4.892,-0.438 7.707,1.135 8.436,4.705c-1.754,3.867 -19.381,-5.995 -20.613,2.514c-1.313,9.086 29.214,0.205 29.015,-4.15c-0.031,-0.141 -0.039,-0.277 -0.123,-0.424c0.079,0.136 0.115,0.278 0.123,0.424c0.401,1.752 -2.899,3.17 -2.241,4.905c4.037,-3.384 8.63,-5.576 13.734,-6.653c0.233,-0.745 0.456,-1.492 0.715,-2.228c0.281,2.113 0.47,4.49 0.816,6.857c1.751,-0.791 2.734,-1.415 2.535,-1.756c0.692,1.193 -0.262,2.548 -2.155,3.93c0.495,2.435 1.248,4.768 2.598,6.671c1.79,-2.097 4.393,-3.544 6.097,-5.704c0.053,1.552 0.103,3.104 0.16,4.653c1.662,-0.875 3.327,-1.751 4.994,-2.632c-1.455,1.466 -13.254,10.195 -8.957,12.885c5.583,3.489 17.59,-7.904 22.846,-9.39c-1.091,0.951 -6.771,3.035 -2.273,4.207c-3.812,0.92 -7.45,2.273 -10.932,4.061c5.453,0 2.758,0.38 -2.868,2.498c0.415,1.542 6.135,0.794 7.786,0.671c-2.21,1.717 -7.531,0.978 -11.479,1.5c1.059,-0.003 1.816,0.149 2.052,0.55c0.436,0.745 -1.017,1.607 -3.468,2.485c5.385,-0.859 14.977,-2.613 20.091,-0.532c1.201,0.349 2.187,1.072 2.853,2.281c-0.582,-1.049 -1.597,-1.77 -2.853,-2.281c-8.074,-2.343 -26.186,12.628 -26.663,16.754c2.834,-1.061 5.461,0.22 7.993,1.45c3.348,-0.33 5.993,-0.079 6.782,1.418c1.062,-0.369 2.126,-1.156 3.198,-2.566c7.406,-9.729 8.672,-4.31 19.74,-0.089c-10.722,1.62 -19.242,11.193 -31.102,9.6c-0.293,1.174 24.865,10.134 24.113,9.893c-4.472,0.564 -12.78,-0.097 -4.265,3.474c-3.576,0.183 -23.232,1.316 -23.845,4.288c0.217,0.131 31.196,5.424 21.593,8.02c5.39,4.147 13.163,-0.378 18.896,-2.043c2.32,6.963 -5.529,6.069 -8.767,6.069c0.963,2.417 2.706,3.94 5.236,4.567c-1.757,-0.443 -8.83,-0.671 -16.136,-0.016c11.8,1.151 18.836,2.158 12.971,2.695c1.34,0.102 2.276,0.454 2.842,1.033c0.446,0.047 0.944,0.131 1.5,0.265c0.38,-0.252 0.715,-0.464 1.014,-0.648c-0.618,-0.11 -1.09,-0.723 -0.875,-2.456c6.805,3.072 2.904,-0.632 2.723,-2.168c7.689,4.606 2.834,3.646 6.428,-4.803c1.012,6.229 -0.22,9.857 2.263,7.238c-0.535,-0.39 -1.078,-0.81 -1.647,-1.305c-0.325,-4.195 6.47,-1.67 9.49,-1.295c1.633,1.043 -4.32,-4.452 -4.32,-4.203c0.044,-5.159 9.22,3.581 10.525,4.203c-0.351,-3.927 -8.493,-16.571 -11.503,-17.184c3.951,0.807 7.794,5.437 10.861,7.675c-0.894,-5.895 -1.694,-4.307 -5.099,-8.598c-0.786,-1.004 -10.827,-10.248 -6.787,-10.261c4.732,2.981 9.008,6.52 12.827,10.61c-0.073,-0.451 -5.956,-20.681 -0.097,-8.743c3.211,-3.028 -2.902,-22.854 1.628,-21.696c5.697,7.356 6.677,15.902 2.941,25.633c1.088,-2.784 2.942,-4.891 5.553,-6.32c0.042,1.859 -0.325,3.547 -1.044,5.08c1.201,-1.006 2.64,-1.711 4.334,-2.089c-3.269,5.002 -6.384,10.098 -9.343,15.291c2.435,-0.689 6.774,-9.183 9.101,-6.865c0.142,0.689 0.063,1.289 -0.144,1.837c0.876,-0.537 1.851,-0.781 2.952,-0.663c3.251,2.32 -8.876,9.199 -10.284,9.503c-2.983,1.903 -1.403,6.63 -1.429,9.807c0.855,-0.438 8.082,-9.312 4.999,-1.271c3.144,-2.947 6.829,-4.774 11.063,-5.479c0.155,0.152 -14.945,14.95 -15.296,18.646c1.266,-0.409 23.428,-9.547 22.083,-10.347c2.032,1.214 -1.693,4.433 -2.71,5.422c3.688,-2.473 7.72,-3.99 12.09,-4.546c-1.405,3.195 -3.882,5.109 -7.429,5.733c9.663,-1.827 -12.528,4.118 -16.117,6.09c2.608,-0.233 4.385,0.333 5.369,1.667c0.112,-1.02 0.951,-1.594 2.519,-1.714c-5.028,-0.464 2.98,-1.398 14.35,-2.417c1.282,-0.443 2.813,-0.831 4.962,-1.049c-4.705,-2.186 -4.847,-3.969 0.768,-3.497c-0.118,-0.076 -0.186,-0.144 -0.296,-0.218c-1.138,-0.238 -2.275,-0.597 -3.408,-1.098c0,-0.472 0.514,-0.878 1.332,-1.24c-0.288,-1.5 1.79,-2.745 6.341,-3.728c-0.778,-0.133 -10.808,-4.926 -10.999,-6.318c6.7,-4.233 8.501,0.071 15.262,-2.404c-3.418,-1.916 -11.524,-5.764 -15.488,-2.107c-0.487,0.621 -0.907,1.187 -1.174,1.604c-0.097,0.186 -0.207,0.349 -0.294,0.559c0.026,-0.111 0.139,-0.315 0.294,-0.559c0.333,-0.637 0.721,-1.182 1.174,-1.604c1.337,-1.694 3.125,-3.704 3.324,-3.639c-1.788,0.69 -3.57,1.387 -5.361,2.089c1.806,-1.638 2.724,-3.646 2.745,-6.026c0.278,-0.213 1.161,-0.344 2.325,-0.42c1.125,-1.523 5.324,-0.972 9.542,-0.081c-0.498,-5.078 -6.247,-9.128 -6.262,-14.287c3.279,1.604 6.561,3.201 9.843,4.794c0.105,-0.566 -0.144,-1.376 -0.618,-2.317c-5.123,-1.156 -9.823,-2.556 -9.199,-3.618c0.472,-0.804 3.563,-0.335 7.199,0.491c-2.792,-3.778 -6.845,-7.86 -7.225,-7.896c10.604,-4.418 3.916,0.215 0.291,-7.98c3.565,2.498 7.146,4.975 10.743,7.434c4.642,-3.913 -3.823,-5.413 -5.385,-5.206c1.206,-0.084 2.163,-0.278 2.899,-0.571c-2.152,-1.274 -3.436,-2.554 -2.805,-3.647c-0.22,0.38 1.626,1.256 4.386,2.307c0.168,-0.401 0.152,-0.878 0.042,-1.4c-1.691,-1.122 -2.595,-2.212 -2.055,-3.143c0.147,0.029 0.286,0.079 0.435,0.107c-0.034,-0.041 -0.055,-0.078 -0.089,-0.123c3.604,1.306 4.653,0.226 3.133,-3.248c1.059,1.481 2.115,2.97 3.169,4.452c-0.739,-1.311 -0.962,-4.069 -0.862,-7.22c-3.285,-1.057 -4.696,-1.618 -0.727,-0.865c-3.547,-0.629 -6.021,-2.54 -7.429,-5.736c2.975,0.377 5.778,1.235 8.433,2.501c0.459,-4.475 1.361,-8.897 2.244,-10.701c-0.351,2.876 0.409,6.087 1.484,9.259c5.76,2.934 18.356,8.108 19.302,8.415c-0.351,-3.699 -15.448,-18.495 -15.294,-18.647c4.234,0.703 7.917,2.53 11.063,5.474c-3.083,-8.035 4.145,0.834 4.997,1.274c-0.026,-3.18 1.554,-7.906 -1.429,-9.81c-1.405,-0.301 -13.532,-7.182 -10.281,-9.503c1.098,-0.115 2.076,0.129 2.951,0.666c-0.207,-0.545 -0.285,-1.148 -0.146,-1.837c2.33,-2.318 6.666,6.176 9.104,6.865c-2.96,-5.193 -6.074,-10.289 -9.346,-15.291c1.696,0.378 3.136,1.083 4.336,2.09c-0.718,-1.534 -1.088,-3.222 -1.043,-5.081c2.611,1.426 4.462,3.536 5.552,6.32c-3.735,-9.733 -2.755,-18.279 2.939,-25.635c4.535,-1.156 -1.581,18.668 1.631,21.698c5.856,-11.938 -0.024,8.289 -0.095,8.745c3.817,-4.094 8.093,-7.631 12.825,-10.614c4.039,0.016 -6.001,9.259 -6.79,10.26c-3.403,4.292 -4.202,2.706 -5.096,8.602c3.067,-2.242 6.907,-6.869 10.861,-7.679c-3.013,0.614 -11.152,13.26 -11.506,17.184c1.311,-0.621 10.483,-9.356 10.528,-4.2c0,-0.249 -5.954,5.249 -4.32,4.2c3.019,-0.372 9.812,-2.897 9.489,1.298c-10.436,9.13 -14.895,-0.899 -15.873,12.15c2.724,-0.925 11.207,-12.368 5.212,-2.057c1.848,-2.318 4.05,-3.364 6.606,-3.128c2.836,1.877 -7.338,5.817 -7.39,5.838c2.734,-0.535 23.732,-11.807 24.901,-8.315c0.968,2.881 -13.028,8.989 -15.566,9.259c-2.446,3.03 -11.071,4.844 -14.355,4.493c-0.273,3.337 0.147,5.859 0.191,9.215c3.154,-0.614 6.294,-2.826 9.044,-4.399c-4.472,-6.315 14.398,-7.626 14.303,-7.741c0.066,1.669 -0.516,3.014 -1.699,4.05c1.576,-0.336 3.214,-0.226 4.921,0.372c-5.259,2.666 -10.735,4.763 -16.432,6.305c5.453,-0.234 28.965,-0.483 30.079,-4.127c3.026,3.456 -15.632,7.003 -17.141,7.178c0.741,-0.105 1.263,0.257 1.578,1.08c0.002,2.782 -24.325,-4.317 -24.986,2.782c0,18.022 29.767,-8.054 29.767,4.572c3.429,-0.942 6.523,-0.365 9.283,1.74c-5.717,1.712 -11.566,2.517 -17.546,2.42c3.765,0.689 7.152,2.197 10.156,4.53c-1.581,5.361 -30.024,-9.356 -31.332,1.735c2.551,3.573 -1.096,3.922 3.062,5.304c4.684,-2.816 9.741,-4.224 15.173,-4.224c-3.02,2.541 -6.328,4.622 -9.922,6.258c7.329,0.826 23.929,-5.804 29.172,-4.2c1.384,1.227 1.224,2.637 -0.475,4.223c3.308,-1.549 6.769,-2.133 10.384,-1.74c1.644,5.995 -15.726,4.779 -18.28,5.054c4.771,-0.139 8.798,1.489 12.08,4.886c-3.08,-0.165 -6.095,-0.652 -9.057,-1.389c1.329,0.747 2.509,1.754 3.515,3.057c-4.747,8.084 -35.115,-19.258 -35.629,0.902c2.14,-1.374 22,-5.157 10.974,0.962c1.473,0.458 20.747,-2.488 10.926,1.68c3.083,0.068 30.494,-1.358 30.36,-1.911c0.443,0.666 0.223,1.245 -0.474,1.751c0.222,-0.016 0.432,-0.031 0.658,-0.044c0.327,-1.162 0.684,-2.318 1.085,-3.463c0.141,1.064 0.254,2.212 0.385,3.387c13.071,-0.619 33.338,0.065 36.198,-0.116c-1.743,-0.417 -12.442,-0.356 -11.676,-3.156c-0.197,0.71 12.074,-4.022 12.384,-4.166c-5.199,0.323 -46.225,5.403 -46.791,3.324c0.487,-1.588 1.538,-2.461 3.119,-2.663c-2.042,-0.275 -3.361,-1.366 -3.919,-3.316c0.537,-1.966 10.192,1.877 11.459,2.1c-9.697,-5.188 17.136,-2.438 21.698,-2.91c-2.635,-0.43 -19.863,-0.241 -19.861,-3.201c0.005,-3.696 21.517,2.503 35.136,1.394c-0.626,-0.309 -1.109,-0.513 -1.332,-0.542c11.483,-3.154 6.788,-0.789 1.505,-4.074c-5.101,1.481 -10.066,3.023 -9.998,3.146c-1.311,-2.255 8.441,-5.754 9.875,-6.328c-1.935,0.097 -45.142,0.699 -41.349,-5.008c-0.136,0.554 27.277,1.977 30.36,1.906c-9.82,-4.171 9.453,-1.221 10.926,-1.675c-11.026,-6.121 8.835,-2.336 10.974,-0.967c-0.514,-20.16 -30.884,7.183 -35.632,-0.902c1.01,-1.3 2.189,-2.31 3.518,-3.057c-2.962,0.74 -5.977,1.225 -9.054,1.392c3.279,-3.394 7.306,-5.025 12.077,-4.886c-2.553,-0.281 -19.924,0.944 -18.28,-5.054c3.618,-0.391 7.078,0.186 10.387,1.743c-1.704,-1.591 -1.862,-3.004 -0.478,-4.229c5.243,-1.604 21.843,5.028 29.175,4.2c-3.599,-1.633 -6.905,-3.72 -9.925,-6.255c5.432,0 10.489,1.405 15.173,4.223c4.158,-1.384 0.509,-1.732 3.06,-5.303c-1.309,-11.091 -29.749,3.626 -31.33,-1.738c3.004,-2.33 6.389,-3.843 10.156,-4.527c-5.98,0.097 -11.828,-0.711 -17.546,-2.42c2.761,-2.108 5.854,-2.687 9.283,-1.738c0,-12.63 29.767,13.451 29.767,-4.577c-0.663,-7.096 -24.988,0.003 -24.986,-2.779c0.312,-0.826 0.837,-1.185 1.579,-1.083c-1.51,-0.173 -20.168,-3.719 -17.145,-7.177c1.114,3.644 24.629,3.895 30.082,4.131c-5.697,-1.541 -11.173,-3.646 -16.432,-6.307c1.707,-0.598 3.348,-0.711 4.921,-0.372c-1.185,-1.036 -1.765,-2.381 -1.699,-4.053c-0.094,0.118 18.775,1.429 14.3,7.741c2.753,1.576 5.893,3.788 9.047,4.402c0.045,-3.356 0.467,-5.878 0.191,-9.215c-3.284,0.351 -11.909,-1.463 -14.355,-4.493c-2.54,-0.273 -16.534,-6.381 -15.566,-9.265c1.169,-3.489 22.167,7.784 24.901,8.316c-0.052,-0.021 -10.226,-3.959 -7.392,-5.833c2.558,-0.239 4.76,0.805 6.606,3.13c-5.993,-10.318 2.49,1.127 5.214,2.055c-0.978,-13.047 -5.437,-3.022 -15.873,-12.153c-0.325,-4.192 6.47,-1.667 9.492,-1.298c1.631,1.049 -4.323,-4.448 -4.323,-4.197c0.045,-5.159 9.22,3.581 10.526,4.197c-0.354,-3.924 -8.491,-16.567 -11.503,-17.181c3.95,0.805 7.793,5.437 10.86,7.676c-0.894,-5.896 -1.69,-4.307 -5.096,-8.599c-0.789,-1.004 -10.832,-10.245 -6.789,-10.26c4.731,2.983 9.007,6.519 12.827,10.612c-0.074,-0.451 -5.954,-20.681 -0.097,-8.746c3.211,-3.028 -2.902,-22.851 1.627,-21.695c5.697,7.356 6.677,15.904 2.942,25.633c1.09,-2.784 2.941,-4.889 5.555,-6.318c0.042,1.859 -0.325,3.542 -1.046,5.078c1.2,-1.009 2.64,-1.712 4.336,-2.09c-3.272,5.005 -6.386,10.101 -9.343,15.292c2.435,-0.687 6.774,-9.183 9.102,-6.863c0.138,0.689 0.06,1.287 -0.147,1.835c0.875,-0.54 1.853,-0.782 2.952,-0.666c3.25,2.322 -8.877,9.201 -10.285,9.505c-2.98,1.906 -1.402,6.63 -1.428,9.807c0.854,-0.44 8.079,-9.309 4.999,-1.271c3.143,-2.947 6.829,-4.771 11.063,-5.479c0.152,0.155 -14.943,14.953 -15.294,18.649c1.266,-0.411 23.428,-9.55 22.083,-10.352c2.032,1.214 -1.696,4.438 -2.713,5.424c3.688,-2.475 7.72,-3.99 12.09,-4.546c-1.405,3.196 -3.882,5.112 -7.429,5.736c9.666,-1.832 -12.528,4.116 -16.12,6.087c3.558,-0.317 5.605,0.823 6.137,3.416c-1.279,2.813 -14.09,-4.354 -14.984,1.83c-0.96,6.606 21.231,0.147 21.09,-3.018c-0.024,-0.102 -0.029,-0.204 -0.089,-0.309c0.057,0.1 0.084,0.202 0.089,0.309c0.293,1.275 -2.108,2.307 -1.631,3.563c3.091,-2.59 6.617,-4.249 10.568,-4.978c2.291,3.935 -20.807,10.719 -23.562,10.989c2.786,-0.186 26.707,-7.424 25.934,-8.756c2.171,3.749 -17.847,9.684 -20.149,10.109c2.753,-0.724 4.538,-0.058 5.359,2.005c-0.496,1.788 -14.854,-1.116 -16.325,-1.208c0.208,2.999 0.142,5.993 -0.194,8.981c3.542,-0.016 32.803,-4.1 32.009,-5.447c1.258,2.139 -13.498,6.171 -14.99,6.561c2.9,-0.254 18.886,-5.539 20.01,-3.628c1.237,2.11 -18.437,5.547 -20.893,5.77c4.021,-0.663 7.615,0.215 10.779,2.64c0,0.231 -15.566,-1.125 -22.057,-1.476c2.451,0.346 4.556,1.502 6.323,3.476c-3.251,5.534 -9.857,-3.749 -11.191,-1.075c0.11,2.818 0.215,5.634 0.322,8.449c2.758,-0.59 15.824,-2.238 12.439,-1.245c2.229,0.233 12.175,-2.868 12.18,-0.789c-0.501,0.739 -1.154,1.193 -1.927,1.413c4.645,-0.81 16.188,-4.504 17.527,-1.392c1.358,3.141 -7.597,4.425 -12.187,4.91c1.709,0.076 3.075,0.781 4.053,2.197c0,0.126 -25.62,-1.198 -28.346,-1.054c3.159,1.562 5.688,3.817 7.586,6.769c-4.121,-1.143 -7.704,-3.233 -10.745,-6.268c0.107,1.455 0.123,2.904 0.084,4.357c0.146,-0.394 0.288,-0.787 0.469,-1.214c0.249,1.528 0.411,3.062 0.508,4.601c4.205,-0.425 17.997,-2.035 17.9,-2.2c1.612,2.769 -8.8,3.851 -13.792,4.203c0.013,0.117 0.024,0.235 0.037,0.348c1.547,0.071 3.594,0.118 5.885,0.144c0.171,-0.144 0.32,-0.275 0.498,-0.424c-0.123,0.154 -0.283,0.28 -0.416,0.424c8.152,0.095 19.003,-0.055 18.919,-0.359c0.71,2.601 -9.86,2.926 -10.874,3.012c2.608,0.574 19.706,1.293 19.703,4.087c-4.152,1.841 -8.36,1.924 -12.614,0.249c2.375,0.732 4.459,1.956 6.252,3.662c0,2.326 -10.478,-1.496 -13.59,-3.025c-0.115,0.034 -0.236,0.055 -0.351,0.089c0.857,1.052 0.977,2.066 0.356,3.044c8.609,0.71 18.469,1.497 25.979,2.213c-1.47,-0.842 -3.091,-2.077 -4.6,-4.001c3.111,1.492 6.22,2.989 9.329,4.48c6.161,0.669 9.205,1.24 5.618,1.571c1.542,0.12 2.37,0.676 2.506,1.667c5.54,-4.659 -11.12,-5.081 -9.246,-5.275c4.617,-3.974 9.461,-2.868 6.258,-10.646c2.561,1.833 4.283,4.253 5.17,7.262c0.608,-5.172 1.774,-10.211 3.499,-15.126c0.666,4.978 0.753,11.424 3.796,15.703c1.796,-2.092 4.396,-3.537 6.1,-5.702c0.05,1.552 0.103,3.104 0.155,4.653c1.665,-0.875 3.332,-1.751 4.997,-2.629c-1.453,1.463 -13.247,10.192 -8.955,12.882c5.581,3.489 17.587,-7.904 22.843,-9.393c-1.09,0.952 -6.771,3.041 -2.275,4.21c-3.804,0.92 -7.448,2.273 -10.932,4.058c5.456,0 2.766,0.383 -2.862,2.504c0.409,1.536 6.136,0.789 7.785,0.666c-3.607,2.807 -15.511,-0.947 -16.182,4.936c3.088,0 16.872,-3.576 23.378,-0.931c1.201,0.349 2.187,1.075 2.853,2.284c-0.582,-1.052 -1.594,-1.773 -2.853,-2.284c-8.076,-2.343 -26.186,12.625 -26.663,16.757c6.659,-2.493 12.172,7.917 17.971,0.301c7.408,-9.731 8.674,-4.309 19.739,-0.091c-10.724,1.62 -19.244,11.193 -31.096,9.6c-0.299,1.174 24.863,10.139 24.108,9.893c-4.473,0.564 -12.783,-0.097 -4.266,3.471c-2.556,0.134 -13.314,0.755 -19.475,2.184c-0.781,0.797 -1.806,1.617 -2.904,2.401c6.053,1.156 28.498,5.463 20.13,7.723c1.966,1.518 4.255,1.866 6.643,1.633c-1.534,-0.288 -3.072,-0.548 -4.596,-0.891c4.811,-2.297 8.3,-1.219 12.311,-1.204c0.236,-0.086 0.469,-0.173 0.703,-0.256c-0.1,-0.488 -0.129,-1.002 -0.166,-1.51c-4.776,-1.34 -11.243,-3.38 -9.71,-7.55c0.103,-0.31 0.265,-0.653 0.512,-1.041c-0.231,0.364 -0.388,0.708 -0.512,1.041c-0.689,2.086 1.665,2.527 4.355,2.414c-1.854,-0.82 -3.117,-1.756 -3.222,-2.926c3.148,0.674 6.294,1.361 9.44,2.043c0.128,-0.029 0.215,-0.048 0.225,-0.048c-0.511,-3.641 -5.193,-5.908 -6.388,-9.327c-0.317,0 -0.622,-0.002 -0.944,0c0.267,-0.089 0.585,-0.16 0.87,-0.241c-0.065,-0.225 -0.167,-0.438 -0.201,-0.674c0.5,0.11 0.998,0.22 1.496,0.331c2.674,-0.588 5.928,-0.892 9.121,-1.039c-3.193,-2.639 -9.427,-4.642 -11.417,-5.405c9.964,-3.324 3.772,0.05 -0.739,-5.71c3.691,1.772 7.384,3.547 11.078,5.319c0.281,-0.199 0.496,-0.388 0.666,-0.563c-0.113,-0.163 -0.26,-0.307 -0.364,-0.472c0.173,0.086 0.34,0.178 0.513,0.267c1.938,-2.585 -7.688,-2.831 -6.535,-2.954c1.345,-1.159 2.695,-1.665 3.618,-2.31c-0.823,-0.464 -1.62,-0.996 -2.339,-1.667c0.837,0.485 1.762,0.944 2.732,1.374c0.862,-0.776 1.106,-1.867 0.081,-4.355c1.673,1.198 2.803,2.779 3.379,4.745c0.399,-3.379 1.159,-6.674 2.286,-9.88c0.435,3.25 0.496,7.461 2.485,10.26c1.17,-1.373 2.871,-2.314 3.983,-3.727c0.034,1.009 0.068,2.026 0.102,3.041c1.088,-0.575 2.178,-1.149 3.266,-1.72c-0.508,0.511 -2.96,2.396 -4.695,4.299c3.571,0.013 5.995,-1.308 5.073,-4.889c1.082,3.314 2.008,5.385 2.784,6.252c0.655,-0.417 1.3,-0.833 1.919,-1.229c0.186,-0.669 0.351,-1.515 0.487,-2.582c1.741,-4.745 3.883,-9.454 6.279,-14.094c-0.047,7.05 -3.351,13.989 -2.745,21.069c-0.37,-4.301 5.6,-8.341 7.448,-12.321c-0.236,3.77 -3.676,7.262 -3.872,11.034c5.217,-0.988 10.441,-1.969 15.668,-2.946c-2.587,1.843 -22.615,6.213 -16.63,10.415c2.409,1.688 18.94,-7.852 21.742,-8.62c-4.904,3.815 3.5,5.663 9.844,7.424c-6.96,2.069 -13.655,-5.111 -22.854,0.16c7.23,-0.013 -3.075,0.645 -2.789,2.905c8.176,-0.422 16.29,1.901 24.471,1.484c-4.721,3.358 -29.043,-4.522 -32.31,2.341c0.31,0.152 0.635,0.317 0.978,0.498c3.885,-0.676 15.189,-2.7 16.206,-0.1c-0.781,-2.018 -12.924,7.673 -13.254,9.136c4.249,-1.602 19.585,-4.409 25.25,-4.559c-2.556,0.071 -12.934,5.262 -13.272,7.115c5.665,-0.91 19.021,-4.818 24.592,-2.461c-5.859,0.907 -15.603,2.933 -19.675,5.725c1.458,0.141 2.643,0.529 3.702,1.03c0.399,0.171 0.813,0.375 1.253,0.627c-0.362,-0.26 -0.826,-0.425 -1.253,-0.627c-5.468,-2.346 -7.193,2.656 -8.347,2.876c5.631,-1.085 13.289,0.737 19.467,3.177c-0.044,-0.196 -0.144,-0.409 -0.356,-0.658c3.371,0.231 6.74,0.506 10.111,0.716c-2.881,-0.503 -5.678,-1.528 -8.541,-2.134c3.956,-1.211 7.912,-2.422 11.865,-3.633c-6.653,0.374 -13.307,0.744 -19.955,1.124c2.963,-0.042 6.622,-3.4 8.963,-3.366c-2.503,-0.404 -4.994,-0.886 -7.466,-1.444c6.494,-3.104 10.583,-0.04 16.804,-1.767c-3.232,-1.379 -15.734,-3.13 -13.669,-8.753c0.103,-0.31 0.263,-0.653 0.512,-1.041c-0.234,0.364 -0.388,0.708 -0.512,1.041c-1.452,4.399 10.654,1.483 10.796,1.483c-0.553,-3.961 -6.1,-6.275 -6.661,-10.242c4.173,0.926 8.349,1.846 12.52,2.769c0.679,-4.305 -10.523,-7.81 -13.323,-8.882c9.965,-3.327 3.775,0.05 -0.739,-5.71c3.694,1.772 7.385,3.547 11.081,5.319c4.664,-3.313 -6.981,-3.591 -5.72,-3.722c3.02,-2.598 6.187,-1.875 4.092,-6.958c1.673,1.198 2.8,2.779 3.379,4.745c0.399,-3.379 1.159,-6.674 2.286,-9.883c0.435,3.253 0.493,7.461 2.483,10.263c1.172,-1.373 2.87,-2.314 3.985,-3.727c0.034,1.009 0.068,2.026 0.102,3.041c1.085,-0.575 2.178,-1.149 3.266,-1.72c-0.951,0.954 -8.661,6.661 -5.854,8.42c3.647,2.281 11.496,-5.167 14.932,-6.139c-0.715,0.621 -4.427,1.987 -1.489,2.752c-2.487,0.598 -4.868,1.484 -7.146,2.65c3.568,0 1.806,0.249 -1.866,1.634c0.264,1.009 4.005,0.521 5.083,0.44c-2.357,1.832 -10.135,-0.621 -10.573,3.227c2.019,0 11.058,-2.346 15.299,-0.603c0.082,0.026 0.152,0.071 0.234,0.1c0.162,0.078 0.319,0.16 0.464,0.249c0.183,0.11 0.361,0.225 0.521,0.375c0.247,0.223 0.462,0.469 0.622,0.76c-0.171,-0.312 -0.394,-0.54 -0.622,-0.76c-0.157,-0.139 -0.335,-0.26 -0.521,-0.375c-0.15,-0.089 -0.299,-0.184 -0.464,-0.249c-0.076,-0.032 -0.155,-0.066 -0.234,-0.1c-5.266,-1.565 -17.136,8.237 -17.448,10.942c4.354,-1.628 7.956,5.175 11.744,0.194c4.844,-6.357 5.67,-2.813 12.9,-0.055c-7.007,1.057 -12.575,7.314 -20.322,6.273c-0.191,0.763 16.251,6.625 15.756,6.468c-2.923,0.367 -8.352,-0.066 -2.787,2.267c-2.336,0.121 -15.181,0.863 -15.582,2.805c0.141,0.084 20.387,3.545 14.111,5.238c3.521,2.711 8.604,-0.244 12.348,-1.334c1.517,4.553 -3.61,3.969 -5.726,3.969c0.302,0.763 0.732,1.381 1.274,1.871c3.358,0.291 6.785,0.344 7.902,-2.907c2.624,-1.751 -1.935,-1.507 -0.942,-3.159c2.533,-4.202 19.255,0.42 23.332,0.629c-1.13,-6.359 -21.774,-1.856 -25.932,-1.316c1.135,-1.124 0.771,-1.523 -1.093,-1.187c0.356,-1.327 6.365,-0.286 6.734,-1.665c-2.275,-0.406 -3.717,-2.967 -5.376,-2.86c2.128,-0.354 4.257,-0.739 6.375,-1.145c-3.046,-1.115 -5.744,-1.156 -8.905,-0.821c4.058,-2.608 5.906,-1.379 11.236,-2.223c-3.067,-1.402 -6.135,-2.805 -9.199,-4.205c2.076,1.078 14.103,3.062 15.184,0.034c0.409,-1.137 -10.767,-2.118 -11.994,-1.851c1.112,-0.372 23.08,-4.168 22.97,-4.878c-2.889,-3.007 -14.709,3.235 -16.044,1.187c0.462,-0.301 1.867,-0.765 1.502,-1.384c-4.362,0.805 -0.049,-5.211 -6.834,-0.624c1.13,-3.153 3.356,-5.114 6.682,-5.885c-5.232,-0.385 -2.021,-0.55 0.006,-2.695c-2.286,1.154 -3.555,0.59 -3.804,-1.693l-0.126,0.854c-2.865,0.173 -5.642,-0.236 -8.339,-1.219c11.768,-1.08 16.992,-3.208 27.193,-2.92c-6.237,-2.535 -15.074,-11.118 -13.11,-11.873c-2.837,0.7 -5.631,0.566 -8.384,-0.398c1.098,-0.097 24.443,-3.673 23.753,-4.289c-6.071,1.067 -11.322,-3.712 -17.152,-2.635c4.952,-4.079 1.73,-3.927 -3.699,-2.364c0.994,-0.548 1.987,-1.096 2.986,-1.644c-0.899,-0.516 -1.793,-1.035 -2.69,-1.552c1.342,0.081 13.915,0.585 12.017,-1.617c2.215,0.726 8.399,4.807 10.699,2.118c-2.826,-1.392 -5.65,-2.779 -8.476,-4.166c1.03,-0.215 1.206,-0.723 0.532,-1.52c3.369,0.225 6.735,0.506 10.109,0.715c-2.884,-0.503 -5.678,-1.531 -8.541,-2.133c3.956,-1.214 7.912,-2.425 11.865,-3.636c-6.651,0.374 -13.304,0.747 -19.955,1.122c2.962,-0.037 6.622,-3.398 8.963,-3.364c-2.506,-0.404 -4.994,-0.889 -7.466,-1.444c6.496,-3.104 10.583,-0.037 16.801,-1.767c-3.23,-1.379 -15.731,-3.133 -13.668,-8.751c0.102,-0.309 0.264,-0.653 0.511,-1.041c-0.231,0.365 -0.388,0.708 -0.511,1.041c-1.45,4.396 10.653,1.481 10.798,1.479c-0.553,-3.959 -6.103,-6.273 -6.662,-10.24c4.174,0.926 8.35,1.848 12.518,2.768c0.684,-4.301 -10.52,-7.806 -13.317,-8.881c9.962,-3.329 3.772,0.05 -0.742,-5.71c3.694,1.772 7.387,3.55 11.081,5.319c4.666,-3.311 -6.981,-3.594 -5.72,-3.72c3.017,-2.6 6.187,-1.874 4.095,-6.96c1.667,1.198 2.797,2.779 3.376,4.745c0.399,-3.382 1.159,-6.672 2.286,-9.886c0.435,3.256 0.493,7.467 2.483,10.264c1.172,-1.369 2.87,-2.313 3.987,-3.725c0.031,1.014 0.066,2.026 0.1,3.043c1.088,-0.574 2.178,-1.148 3.269,-1.722c-0.955,0.957 -8.664,6.661 -5.857,8.417c3.649,2.281 11.495,-5.161 14.93,-6.137c-0.711,0.624 -4.425,1.988 -1.489,2.753c-2.486,0.6 -4.868,1.486 -7.144,2.653c3.568,0 1.806,0.249 -1.869,1.633c0.267,1.007 4.008,0.517 5.088,0.435c-2.359,1.835 -10.14,-0.618 -10.577,3.23c2.021,0 11.057,-2.349 15.299,-0.603c0.083,0.026 0.154,0.068 0.233,0.1c0.162,0.076 0.32,0.16 0.467,0.249c0.183,0.11 0.361,0.225 0.519,0.372c0.249,0.223 0.464,0.472 0.623,0.763c-0.17,-0.312 -0.393,-0.543 -0.623,-0.763c-0.155,-0.136 -0.333,-0.257 -0.519,-0.372c-0.153,-0.089 -0.299,-0.184 -0.467,-0.249c-0.074,-0.034 -0.155,-0.066 -0.233,-0.1c-5.264,-1.565 -17.135,8.239 -17.446,10.942c4.351,-1.628 7.956,5.175 11.744,0.197c4.842,-6.363 5.668,-2.816 12.9,-0.058c-7.007,1.059 -12.572,7.317 -20.322,6.271c-0.194,0.768 16.248,6.627 15.756,6.467c-2.923,0.37 -8.353,-0.06 -2.79,2.273c-2.333,0.118 -15.178,0.86 -15.579,2.808c0.141,0.081 20.387,3.536 14.109,5.232c3.523,2.713 8.606,-0.241 12.35,-1.334c1.517,4.553 -3.61,3.969 -5.726,3.969c0.624,1.578 1.767,2.574 3.416,2.98c-2.69,-0.673 -24.543,-0.6 -22.534,5.98c2.052,-1.033 4.118,-2.047 6.189,-3.044c4.695,-1.79 3.977,3.06 2.409,2.963c1.051,0.975 11.723,-1.316 14.311,-0.944c0.008,0.653 -0.349,0.915 -1.057,0.802c10.864,3.217 1.319,2.708 -2.742,2.928c3.618,1.114 8.303,1.172 10.984,4.226c-10.525,-1.727 0.053,0.197 -1.824,1.961c-12.652,-7.007 1.685,1.481 -11.603,-2.199c3.539,4.113 -12.075,2.482 -16.833,2.443c2.737,1.397 19.279,1.602 24.409,1.043c0.427,-0.113 0.923,-0.238 1.557,-0.398c0.029,0.157 -0.579,0.291 -1.557,0.398c-2.163,0.566 -1.743,0.635 1.471,1.356c-1.646,0.144 -3.403,0.658 -5.002,1.087c3.652,2.708 -2.386,-0.595 1.764,2.095c-0.933,1.924 -16.67,-1.041 -17.155,3.078c0.074,-0.619 31.935,-1.741 22.275,-1.159c2.173,1.827 4.75,1.017 7.212,1.18c2.792,-1.442 5.505,-3.107 7.552,-3.073c-3.83,-0.621 -7.639,-1.363 -11.424,-2.215c9.943,-4.747 16.196,-0.055 25.714,-2.7c-4.954,-2.113 -24.167,-4.8 -20.912,-13.438c0.024,-0.071 0.063,-0.147 0.09,-0.217c0.065,-0.158 0.123,-0.312 0.204,-0.472c0.134,-0.273 0.291,-0.553 0.482,-0.855c-0.186,0.291 -0.343,0.574 -0.482,0.855c-0.081,0.162 -0.141,0.317 -0.204,0.472c-0.029,0.07 -0.063,0.144 -0.09,0.217c-2.341,6.803 16.298,2.312 16.519,2.31c-0.847,-6.061 -9.338,-9.603 -10.198,-15.666c6.386,1.413 12.777,2.823 19.16,4.228c1.041,-6.58 -16.101,-11.941 -20.382,-13.587c15.244,-5.091 5.773,0.076 -1.135,-8.738c5.655,2.716 11.301,5.429 16.956,8.143c7.138,-5.07 -10.68,-5.5 -8.751,-5.699c4.617,-3.975 9.464,-2.866 6.261,-10.641c2.558,1.83 4.283,4.249 5.172,7.256c0.605,-5.172 1.769,-10.208 3.494,-15.123c0.669,4.978 0.758,11.422 3.799,15.703c1.793,-2.095 4.396,-3.539 6.1,-5.705c0.053,1.552 0.102,3.104 0.155,4.656c1.664,-0.878 3.332,-1.754 4.996,-2.632c-1.452,1.463 -13.251,10.192 -8.955,12.885c5.581,3.489 17.588,-7.904 22.844,-9.393c-1.088,0.951 -6.769,3.041 -2.275,4.21c-3.804,0.92 -7.448,2.27 -10.932,4.058c5.455,0 2.763,0.383 -2.863,2.504c0.412,1.536 6.135,0.789 7.783,0.668c-3.607,2.802 -15.508,-0.952 -16.179,4.936c3.088,0 16.874,-3.581 23.378,-0.933c1.201,0.349 2.186,1.072 2.852,2.281c-0.582,-1.049 -1.594,-1.77 -2.852,-2.281c-8.079,-2.344 -26.189,12.625 -26.666,16.757c6.659,-2.493 12.174,7.914 17.973,0.299c5.998,-7.878 7.972,-5.825 14.377,-2.517c0.705,-0.391 1.413,-0.781 2.12,-1.169c-1.371,-0.792 -2.742,-1.584 -4.113,-2.375c2.053,0.123 21.295,0.891 18.387,-2.472c3.39,1.114 12.854,7.358 16.372,3.237c-4.323,-2.123 -8.649,-4.252 -12.969,-6.375c1.576,-0.323 1.846,-1.101 0.81,-2.326c5.159,0.349 10.308,0.776 15.47,1.096c-4.41,-0.773 -8.688,-2.338 -13.069,-3.266c6.051,-1.854 12.104,-3.707 18.16,-5.56c-10.182,0.574 -20.362,1.143 -30.541,1.717c4.535,-0.058 10.135,-5.201 13.716,-5.146c-3.833,-0.619 -7.639,-1.358 -11.425,-2.21c9.941,-4.748 16.193,-0.058 25.715,-2.703c-4.955,-2.11 -24.171,-4.803 -20.91,-13.44c0.021,-0.061 0.053,-0.129 0.079,-0.189c0.066,-0.163 0.129,-0.328 0.212,-0.498c0.134,-0.27 0.291,-0.551 0.483,-0.855c-0.186,0.294 -0.344,0.574 -0.483,0.855c-0.086,0.173 -0.152,0.338 -0.212,0.498c-0.026,0.063 -0.055,0.128 -0.079,0.189c-2.346,6.808 16.296,2.32 16.516,2.314c-0.849,-6.061 -9.338,-9.605 -10.195,-15.666c6.383,1.411 12.772,2.821 19.158,4.229c1.041,-6.583 -16.104,-11.941 -20.382,-13.588c15.244,-5.09 5.772,0.077 -1.135,-8.737c5.652,2.713 11.301,5.429 16.953,8.14c7.141,-5.068 -10.678,-5.498 -8.751,-5.697c4.622,-3.974 9.466,-2.868 6.266,-10.643c2.556,1.832 4.281,4.247 5.169,7.256c0.608,-5.169 1.77,-10.21 3.497,-15.123c0.666,4.978 0.755,11.424 3.796,15.705c1.793,-2.097 4.394,-3.541 6.1,-5.704c0.05,1.552 0.103,3.101 0.158,4.656c1.662,-0.879 3.332,-1.754 4.996,-2.632c-1.455,1.462 -13.254,10.192 -8.96,12.882c5.584,3.489 17.59,-7.901 22.846,-9.393c-1.09,0.954 -6.771,3.036 -2.275,4.21c-3.806,0.92 -7.45,2.273 -10.932,4.061c5.456,0 2.763,0.382 -2.862,2.498c0.409,1.541 6.134,0.792 7.785,0.671c-3.609,2.805 -15.511,-0.951 -16.182,4.934c3.088,0 16.869,-3.576 23.373,-0.931c1.204,0.349 2.189,1.072 2.858,2.283c-0.582,-1.051 -1.597,-1.772 -2.858,-2.283c-8.077,-2.341 -26.186,12.625 -26.66,16.754c6.658,-2.49 12.171,7.92 17.973,0.302c7.408,-9.729 8.674,-4.308 19.737,-0.087c-10.722,1.618 -19.239,11.191 -31.099,9.6c-0.291,1.172 24.868,10.135 24.113,9.891c-4.473,0.564 -12.78,-0.094 -4.266,3.471c-3.573,0.189 -23.229,1.318 -23.845,4.296c0.218,0.129 31.196,5.419 21.594,8.014c3.921,3.018 9.104,1.442 13.846,-0.28c-0.044,-0.136 -0.084,-0.273 -0.217,-0.427c0.207,0.065 0.437,0.157 0.687,0.259c1.607,-0.59 3.156,-1.18 4.579,-1.596c0.559,1.672 0.519,2.883 0.11,3.769c3.99,1.807 8.727,3.463 10.998,0.805c-4.323,-2.123 -8.649,-4.252 -12.969,-6.375c1.576,-0.323 1.846,-1.101 0.81,-2.326c5.157,0.349 10.308,0.776 15.467,1.096c-4.407,-0.773 -8.688,-2.338 -13.068,-3.266c6.053,-1.854 12.108,-3.707 18.164,-5.56c-10.184,0.574 -20.364,1.143 -30.54,1.717c4.532,-0.058 10.134,-5.201 13.713,-5.146c-3.833,-0.619 -7.639,-1.358 -11.427,-2.21c9.943,-4.748 16.195,-0.058 25.714,-2.703c-4.955,-2.11 -24.165,-4.8 -20.909,-13.438c0.023,-0.065 0.057,-0.136 0.086,-0.207c0.066,-0.157 0.124,-0.317 0.207,-0.48c0.131,-0.272 0.289,-0.553 0.483,-0.857c-0.186,0.294 -0.344,0.577 -0.483,0.857c-0.083,0.165 -0.146,0.325 -0.207,0.48c-0.029,0.071 -0.06,0.139 -0.086,0.207c-2.341,6.806 16.295,2.318 16.518,2.312c-0.849,-6.061 -9.341,-9.605 -10.198,-15.666c6.389,1.411 12.775,2.821 19.158,4.229c1.041,-6.583 -16.098,-11.941 -20.379,-13.588c15.241,-5.09 5.772,0.077 -1.135,-8.737c5.651,2.713 11.303,5.429 16.955,8.14c7.136,-5.068 -10.677,-5.498 -8.753,-5.697c4.622,-3.974 9.464,-2.868 6.266,-10.643c2.553,1.832 4.278,4.247 5.169,7.256c0.608,-5.169 1.772,-10.21 3.497,-15.123c0.666,4.978 0.753,11.424 3.794,15.705c1.795,-2.097 4.396,-3.541 6.105,-5.704c0.045,1.552 0.1,3.101 0.152,4.656c1.665,-0.879 3.332,-1.754 4.997,-2.632c-1.453,1.462 -13.255,10.192 -8.958,12.882c5.584,3.489 17.59,-7.901 22.846,-9.393c-1.09,0.954 -6.771,3.036 -2.275,4.21c-3.809,0.92 -7.45,2.273 -10.932,4.061c5.456,0 2.761,0.382 -2.865,2.498c0.412,1.541 6.134,0.792 7.786,0.671c-3.605,2.805 -15.512,-0.951 -16.18,4.934c3.088,0 16.869,-3.576 23.373,-0.931c1.203,0.349 2.189,1.072 2.855,2.283c-0.582,-1.051 -1.594,-1.772 -2.855,-2.283c-8.077,-2.341 -26.183,12.625 -26.66,16.754c6.656,-2.49 12.171,7.92 17.973,0.302c3.342,-4.389 5.437,-5.679 7.741,-5.403c8.997,-3.51 15.071,0.511 24.044,-1.985c-4.954,-2.11 -24.167,-4.8 -20.911,-13.438c0.023,-0.065 0.06,-0.136 0.083,-0.207c0.069,-0.157 0.129,-0.317 0.213,-0.479c0.131,-0.273 0.288,-0.554 0.479,-0.855c-0.186,0.291 -0.343,0.574 -0.479,0.855c-0.087,0.165 -0.15,0.325 -0.213,0.479c-0.026,0.071 -0.057,0.139 -0.083,0.207c-2.339,6.806 16.297,2.315 16.518,2.315c-0.85,-6.063 -9.338,-9.605 -10.195,-15.668c6.386,1.412 12.772,2.823 19.155,4.231c1.043,-6.586 -16.099,-11.944 -20.377,-13.59c15.241,-5.089 5.77,0.076 -1.138,-8.735c5.652,2.713 11.304,5.429 16.953,8.14c7.141,-5.068 -10.674,-5.498 -8.75,-5.699c4.624,-3.975 9.466,-2.866 6.265,-10.644c2.556,1.835 4.281,4.25 5.17,7.259c0.608,-5.172 1.772,-10.211 3.5,-15.123c0.663,4.978 0.752,11.422 3.793,15.705c1.793,-2.097 4.394,-3.544 6.1,-5.704c0.05,1.552 0.102,3.101 0.157,4.653c1.665,-0.876 3.33,-1.751 4.994,-2.632c-1.452,1.465 -13.251,10.195 -8.957,12.882c5.584,3.489 17.59,-7.901 22.846,-9.39c-1.09,0.954 -6.771,3.038 -2.273,4.21c-3.809,0.917 -7.45,2.273 -10.931,4.061c5.452,0 2.76,0.38 -2.868,2.498c0.416,1.541 6.134,0.794 7.786,0.671c-3.605,2.802 -15.512,-0.952 -16.183,4.934c3.091,0 16.877,-3.579 23.379,-0.931c1.203,0.349 2.186,1.072 2.852,2.281c-0.582,-1.049 -1.594,-1.77 -2.852,-2.281c-8.075,-2.346 -26.184,12.625 -26.664,16.754c6.659,-2.49 12.175,7.92 17.976,0.302c7.406,-9.729 8.669,-4.31 19.737,-0.09c-10.722,1.62 -19.242,11.194 -31.099,9.6c-0.293,1.175 24.863,10.135 24.11,9.894c-4.469,0.563 -12.78,-0.097 -4.265,3.471c-3.573,0.186 -23.229,1.316 -23.845,4.291c0.217,0.131 31.198,5.421 21.596,8.019c5.387,4.147 13.16,-0.377 18.896,-2.044c2.32,6.965 -5.532,6.071 -8.767,6.071c0.96,2.417 2.703,3.94 5.233,4.567c-4.119,-1.036 -37.556,-0.923 -34.483,9.146c3.143,-1.581 6.296,-3.133 9.468,-4.658c7.181,-2.743 6.085,4.684 3.684,4.535c1.546,1.428 16.575,-1.72 21.318,-1.489c1.73,-0.509 -3.012,0.026 -6.685,-3.822c4.194,1.659 8.389,3.313 12.58,4.973c5.582,-3.256 -9.715,-3.212 -6.49,-3.487c1.19,-0.842 2.092,-1.434 2.799,-1.869c-0.616,-0.11 -1.088,-0.724 -0.875,-2.456c6.808,3.072 2.904,-0.632 2.724,-2.168c7.691,4.606 2.833,3.646 6.427,-4.803c1.196,7.356 -0.76,11.118 3.998,5.204l0.506,5.022c1.172,-1.082 2.648,-1.995 3.896,-3.061c0.587,-0.63 1.072,-1.109 1.3,-1.301c-0.377,0.472 -0.823,0.897 -1.3,1.301c-2.189,2.364 -5.888,7.004 -3.875,8.04c4.716,2.435 12.549,-4.706 16.948,-5.736c-0.747,0.542 -5.059,1.848 -1.691,2.577c-2.784,0.548 -5.492,1.371 -8.105,2.472c4.003,0 2.107,0.215 -2.129,1.528c0.286,0.905 4.928,0.396 5.775,0.406c-2.669,1.718 -11.479,-0.773 -12.001,3.018c2.011,0 12.733,-3.075 14.675,-0.194c-1.756,-2.619 -9.943,4.144 -10.224,6.071c7.078,-2.186 14.39,1.806 21.088,3.912c-2.029,-0.446 -4.061,-0.451 -6.09,-0.024c6.653,1.263 -0.213,1.088 -0.682,2.076c-4.262,-0.569 -5.799,1.728 -8.685,2.328c-1.625,5.369 6.053,6.299 9.327,6.48c-1.192,0.69 -0.878,1.036 0.944,1.036c-2.925,0.304 -9.77,-0.157 -3.164,2.123c-7.429,0.939 -5.057,3.238 -2.912,5.068c0.296,0.049 0.437,0.188 0.49,0.411c1.145,0.981 1.984,1.762 0.752,2.035c4.103,2.597 9.965,-0.276 14.02,-1.246c1.678,4.166 -4.984,3.704 -6.504,3.704c0.828,1.563 2.126,2.494 3.885,2.79c-6.257,-1.293 -15.351,-1.02 -21.158,2.024c2.134,0.18 10.04,3.725 5.332,3.481c1.874,1.426 12.421,-1.329 16.251,-0.881c-0.024,0.569 -0.331,0.821 -0.857,0.826c12.486,3.072 0.663,2.475 -3.458,2.658c4.005,1.012 9.272,0.949 12.47,3.945c-2.021,-1.478 -3.505,-1.578 -4.462,-0.296c0.868,0.658 1.733,1.316 2.601,1.972c-0.776,0.595 -17.331,-5.663 -11.131,0.262c-2.26,-1.209 -4.656,-2.05 -7.178,-2.517c0.21,0.102 7.595,3.298 12.033,4.15c-0.16,-0.207 0.905,-0.412 3.259,-0.902c0.267,1.193 -1.175,1.303 -3.259,0.902c0.139,0.178 1.159,0.362 3.162,0.734c-1.89,0.338 -3.783,0.679 -5.676,1.02c4.331,2.619 -2.905,-0.643 2.003,1.953c-0.655,1.095 -3.694,-0.239 -5.091,2.181c0.404,0.168 6.981,-0.131 10.984,-0.346c-0.029,-0.019 -0.055,-0.026 -0.084,-0.045c4.905,-0.244 3.348,-0.126 0.084,0.045c3.028,2.024 6.588,0.495 9.825,1.324c-0.605,-1.188 1.83,-1.062 1.143,-2.299c-4.663,1.177 -0.668,-7.482 -7.35,-0.871c0.398,-3.984 2.456,-6.724 6.168,-8.226c-5.345,-0.509 -2.239,-0.742 -0.404,-3.765c-2.637,1.327 -4.071,0.538 -4.299,-2.367c-2.679,-0.506 -2.682,-0.112 0,1.19c-3.156,0.218 -6.166,-0.351 -9.034,-1.701c10.722,-1.316 16.684,-5.592 25.28,-4.981c1.19,-1.24 -29.047,-6.85 -12.397,-15.695c-3.049,0.975 -6.03,0.789 -8.945,-0.558c4.784,-0.561 11.93,0.653 15.729,-3.261c3.788,-3.901 -7.511,-6.9 -9.498,-6.41c3.458,-4.063 2.69,-5.969 -4.152,-3.306c4.008,-1.528 4.024,-3.017 0.037,-4.467c11.086,0.866 10.084,-2.569 18.494,-3.423c-4.705,-2.187 -4.847,-3.969 0.766,-3.497c-4.273,-2.698 -2.952,-4.79 3.969,-6.284c-0.779,-0.134 -10.809,-4.926 -10.998,-6.318c6.698,-4.234 8.502,0.071 15.26,-2.404c-3.418,-1.919 -11.524,-5.764 -15.485,-2.107c-0.488,0.621 -0.91,1.187 -1.174,1.604c-0.097,0.186 -0.21,0.349 -0.297,0.556c0.027,-0.11 0.139,-0.312 0.297,-0.556c0.332,-0.637 0.718,-1.182 1.174,-1.604c1.337,-1.694 3.122,-3.705 3.321,-3.639c-1.785,0.689 -3.57,1.387 -5.358,2.087c1.806,-1.639 2.724,-3.644 2.742,-6.025c1.015,-0.778 9.949,-0.461 11.876,-0.477c-0.485,-5.088 -6.253,-9.144 -6.271,-14.31c3.279,1.604 6.562,3.2 9.846,4.794c0.572,-3.085 -9.241,-13.283 -9.846,-13.341c10.607,-4.417 3.916,0.215 0.291,-7.979c3.568,2.495 7.149,4.975 10.743,7.434c4.645,-3.914 -3.822,-5.413 -5.385,-5.206c5.028,-0.351 5.972,-2.506 2.816,-6.47c3.604,1.306 4.65,0.225 3.132,-3.248c1.057,1.481 2.116,2.97 3.17,4.451c-2.055,-3.638 -0.155,-18.324 1.659,-22.02c-0.721,5.882 3.185,13.162 5.01,18.636c-0.087,-0.21 -0.152,-0.357 -0.205,-0.469c-0.021,0.084 -0.036,0.152 -0.057,0.23c0.12,0.496 0.385,1.413 0.807,2.808c-0.739,-0.543 -1.062,-1.227 -0.993,-2.05c-1.303,5.366 -1.156,7.482 0.469,6.297c1.9,-2.7 4.223,-5.246 4.92,-6.297c-2.241,3.439 -3.882,5.537 -4.92,6.297c-2.097,2.97 -3.681,6.131 -1.982,7.678c2.737,2.506 14.18,-7.586 16.998,-8.58c-0.671,0.661 -5.167,2.755 -2.139,3.851c-2.85,0.881 -5.534,2.113 -8.059,3.704c8.234,0 -12.979,2.894 3.078,2.894c-2.779,2.562 -10.772,-0.532 -11.668,4.507c0.972,0 12.64,-3.647 13.736,-0.286c-0.925,-2.863 -9.967,7.351 -10.218,9.083c6.553,-3.145 13.634,2.889 19.433,5.852c-1.898,-0.666 -3.796,-0.677 -5.691,-0.032c5.838,1.778 0.031,0.718 -0.732,3.107c-13.855,-2.994 -5.607,11.741 1.439,14.73c-6.312,1.242 -7.762,0.514 -2.883,3.172c-14.623,0 3.696,9.511 -1.104,11.236c3.88,3.727 8.876,-0.252 13.005,-1.862c1.733,5.786 -2.328,5.542 -5.77,5.542c0.632,2.032 1.932,3.421 3.901,4.171c-4.451,-1.439 -21.672,-1.984 -19.318,5.623c6.536,-3.02 6.281,0.923 5.566,2.223c2.697,-0.818 16.513,-0.729 13.503,-0.265c4.021,-0.471 6.011,0.477 5.904,2.892c-2.706,0.723 -5.453,0.975 -8.248,0.76c-0.154,1.72 10.313,4.43 12.122,6.811c-5.358,-1.143 -4.304,0.639 -2.834,2.042c3.212,2.341 1.421,1.355 0,0c-0.728,-0.53 -1.719,-1.237 -3.027,-2.144c0.587,0.707 1.166,1.992 1.696,4.086c-4.045,1.403 -3.938,1.277 0.16,2.446c-10.604,3.141 -2.045,1.02 -3.062,4.777c-3.524,-0.344 -3.469,-0.37 -4.323,2.933c0.052,0.032 20.712,-1.408 10.127,-0.579c3.093,3.059 6.619,0.498 9.959,2.212c-1.84,3.678 -3.316,-2.102 -3.909,3.112c1.293,-1.067 3.115,-0.162 3.206,1.513c-3.059,0.141 -10.73,-1.547 -8.103,3.672c-8.061,-4.364 -0.139,-0.498 -7.29,-0.498c-0.396,3.209 2.343,4.577 8.223,4.103c-0.343,-0.042 -12.612,11.508 0.706,1.79c-1.08,4.669 5.083,3.479 9.783,7.175c-1.397,-0.783 -2.779,-0.899 -4.145,-0.346c-0.516,0.97 0.771,2.732 2.404,4.483c8.997,-1.421 21.502,-3.539 20.928,-4.05c-7.61,1.345 -14.185,-4.651 -21.499,-3.303c6.221,-5.115 2.152,-4.921 -4.64,-2.96c1.25,-0.687 2.49,-1.376 3.741,-2.063c-1.125,-0.647 -2.252,-1.298 -3.372,-1.945c1.683,0.097 17.447,0.726 15.069,-2.032c2.773,0.915 10.528,6.03 13.414,2.661c-3.547,-1.743 -7.086,-3.486 -10.63,-5.227c1.295,-0.268 1.513,-0.899 0.666,-1.906c4.226,0.288 8.444,0.634 12.669,0.902c-3.609,-0.635 -7.117,-1.919 -10.703,-2.679c4.96,-1.521 9.92,-3.036 14.877,-4.557c-8.342,0.472 -16.675,0.939 -25.022,1.406c3.722,-0.045 8.307,-4.263 11.238,-4.216c-3.138,-0.506 -6.257,-1.111 -9.359,-1.811c8.145,-3.888 13.27,-0.042 21.067,-2.213c-4.048,-1.727 -19.722,-3.927 -17.14,-10.968c0.129,-0.391 0.331,-0.818 0.64,-1.306c-0.288,0.456 -0.485,0.886 -0.64,1.306c-1.814,5.51 13.362,1.859 13.54,1.856c-0.694,-4.968 -7.649,-7.872 -8.349,-12.838c5.232,1.156 10.462,2.31 15.692,3.466c0.857,-5.392 -13.191,-9.786 -16.699,-11.133c12.502,-4.166 4.724,0.055 -0.928,-7.16c4.627,2.226 9.257,4.449 13.892,6.669c5.845,-4.152 -8.751,-4.503 -7.17,-4.669c3.785,-3.253 7.749,-2.346 5.133,-8.716c2.092,1.502 3.505,3.479 4.231,5.943c0.5,-4.236 1.455,-8.363 2.868,-12.387c0.545,4.077 0.618,9.354 3.109,12.864c1.47,-1.717 3.604,-2.899 4.999,-4.672c0.042,1.272 0.084,2.543 0.126,3.815c1.363,-0.716 2.729,-1.439 4.1,-2.155c-1.182,1.182 -10.853,8.349 -7.343,10.554c4.585,2.871 14.429,-6.483 18.717,-7.697c-0.896,0.782 -5.547,2.488 -1.866,3.45c-3.117,0.753 -6.103,1.859 -8.958,3.324c4.483,0 2.247,0.32 -2.343,2.053c0.338,1.256 5.025,0.645 6.378,0.545c-2.955,2.297 -12.712,-0.776 -13.254,4.043c2.537,0 13.886,-2.947 19.194,-0.74c0.074,0.019 0.134,0.061 0.205,0.087c0.241,0.11 0.471,0.228 0.684,0.362c0.215,0.128 0.422,0.264 0.611,0.437c0.314,0.283 0.589,0.595 0.791,0.965c-0.217,-0.396 -0.498,-0.687 -0.791,-0.965c-0.186,-0.16 -0.396,-0.301 -0.611,-0.437c-0.22,-0.134 -0.438,-0.273 -0.684,-0.362c-0.066,-0.032 -0.134,-0.061 -0.205,-0.087c-6.598,-2 -21.496,10.305 -21.892,13.705c5.39,-2.023 10.056,6.379 14.725,0.247c3.476,-4.567 5.17,-5.123 7.731,-4.092c1.625,-2.04 -3.259,-1.041 -7.951,0.07c1.282,-0.584 2.564,-1.163 3.856,-1.745c-1.161,-0.551 -2.32,-1.101 -3.476,-1.652c12.198,0.598 14.127,-2.06 22.734,-2.603c-1.442,-0.43 -2.889,-0.865 -4.336,-1.295c1.378,0.351 -2.126,-1.764 5.465,-1.369c-0.92,-0.582 -1.837,-1.166 -2.757,-1.751c2.66,-0.71 5.146,-2.561 7.846,-3.02c-1.586,-0.595 -12.872,-2.915 -13.249,-4.805c7.143,-2.81 11.387,-0.183 18.591,-1.835c-4.383,-1.536 -16.877,-5.647 -20.641,0.045c0.173,-0.459 1.145,-6.135 2.058,-7.254c-2.677,1.051 -5.435,1.36 -8.287,0.881c10.764,-3.935 12.174,-1.353 23.158,-1.395c-0.755,-4.422 -7.848,-6.462 -8.598,-10.882c4.131,1.217 8.273,2.433 12.413,3.647c0.479,-2.491 -11.962,-9.951 -13.449,-10.145c13.281,-3.647 4.921,0.099 -0.962,-6.069c4.771,1.885 9.54,3.77 14.311,5.657c6.347,-3.707 -11.047,-3.657 -7.382,-3.964c1.355,-0.957 2.385,-1.636 3.19,-2.128c-0.708,-0.124 -1.248,-0.816 -1.006,-2.792c10.074,4.532 2.063,-1.463 3.101,-2.467c8.75,5.232 3.224,4.147 7.314,-5.463c0.516,3.166 0.697,6.359 0.555,9.563c1.327,-1.214 2.661,-2.43 3.99,-3.644c0.194,1.903 0.388,3.809 0.582,5.712c0.808,-0.747 1.749,-1.423 2.677,-2.107c0.881,-0.839 1.935,-1.775 3.232,-2.853c-0.875,1.091 -2.047,1.982 -3.232,2.853c-11.155,10.625 9.398,2.938 16.62,1.247c-0.849,0.616 -5.749,2.103 -1.919,2.929c-3.166,0.621 -6.247,1.562 -9.227,2.818c4.553,0 2.411,0.241 -2.415,1.735c0.378,1.162 5.248,0.548 6.567,0.467c-3.038,1.942 -13.058,-0.878 -13.653,3.423c2.286,0 14.495,-3.491 16.689,-0.214c-1.998,-2.981 -11.307,4.716 -11.624,6.907c8.069,-2.475 16.356,2.048 23.992,4.449c-2.315,-0.506 -4.624,-0.517 -6.934,-0.029c7.568,1.437 -0.236,1.235 -0.768,2.367c-13.183,-1.764 -10.874,9.377 0.726,10.017c-1.36,0.784 -1.001,1.177 1.072,1.182c-3.297,0.045 -11.065,-0.162 -3.596,2.412c-8.457,1.067 -5.747,3.686 -3.303,5.765c0.325,0.06 0.485,0.212 0.542,0.461c1.311,1.114 2.27,2.011 0.863,2.32c4.645,2.944 11.086,-0.254 15.949,-1.418c1.901,4.74 -5.665,4.213 -7.398,4.213c0.595,1.127 1.426,1.929 2.449,2.477c9.138,-3.691 15.249,0.419 24.309,-2.1c-4.952,-2.113 -24.168,-4.795 -20.909,-13.435c0.021,-0.068 0.06,-0.144 0.089,-0.215c0.063,-0.157 0.123,-0.312 0.202,-0.474c0.136,-0.27 0.291,-0.554 0.485,-0.855c-0.189,0.291 -0.344,0.577 -0.485,0.855c-0.079,0.165 -0.145,0.319 -0.202,0.474c-0.032,0.071 -0.063,0.144 -0.089,0.215c-2.341,6.805 16.295,2.315 16.515,2.312c-0.849,-6.063 -9.338,-9.602 -10.192,-15.669c6.386,1.413 12.772,2.824 19.155,4.229c1.043,-6.577 -16.099,-11.938 -20.38,-13.585c15.242,-5.091 5.77,0.074 -1.137,-8.737c5.657,2.713 11.304,5.426 16.956,8.14c7.141,-5.068 -10.678,-5.498 -8.748,-5.697c4.619,-3.974 9.463,-2.868 6.26,-10.646c2.558,1.833 4.283,4.252 5.169,7.259c0.609,-5.169 1.773,-10.208 3.5,-15.123c0.663,4.975 0.752,11.422 3.796,15.702c1.793,-2.094 4.396,-3.536 6.1,-5.704c0.05,1.555 0.102,3.107 0.155,4.656c1.662,-0.876 3.332,-1.751 4.996,-2.629c-1.454,1.46 -13.249,10.192 -8.955,12.882c5.582,3.489 17.588,-7.904 22.844,-9.393c-1.09,0.951 -6.771,3.041 -2.278,4.207c-3.804,0.923 -7.445,2.276 -10.929,4.061c5.455,0 2.763,0.383 -2.863,2.503c0.409,1.537 6.137,0.79 7.784,0.666c-3.605,2.808 -15.512,-0.946 -16.18,4.937c3.088,0 16.872,-3.576 23.376,-0.931c1.203,0.349 2.189,1.075 2.852,2.283c-0.58,-1.051 -1.594,-1.772 -2.852,-2.283c-8.075,-2.344 -26.187,12.625 -26.661,16.757c6.659,-2.493 12.169,7.917 17.968,0.298c7.408,-9.731 8.677,-4.307 19.74,-0.089c-10.722,1.618 -19.242,11.194 -31.097,9.6c-0.296,1.175 24.865,10.14 24.108,9.894c-4.473,0.563 -12.783,-0.097 -4.263,3.471c-3.573,0.186 -23.232,1.318 -23.845,4.294c0.22,0.128 31.196,5.421 21.593,8.014c5.39,4.147 13.165,-0.373 18.896,-2.037c1.009,3.025 0.094,4.564 -1.523,5.34c0.094,0.875 0.202,1.772 0.351,2.658c3.636,0.603 9.189,-4.779 13.472,-4.803c-0.089,-5.429 -24.388,-6.053 -24.878,-11.448c8.638,1.856 17.273,3.72 25.901,5.6c2.742,-10.942 -6.79,-13.103 -23.565,-12.932c4.915,-1.657 13.48,-1.798 19.014,-1.759c-3.922,-1.725 -6.759,-3.959 -8.505,-6.695c4.827,2.472 9.632,4.954 14.424,7.45c4.921,-3.327 -2.695,-5.694 -7.269,-5.217c8.519,-6.824 -4.876,-2.349 -11.899,-8.897c7.232,4.176 20.678,6.852 18.693,-0.852c2.638,8.077 4.363,8.887 5.188,2.438c1.744,-4.743 3.885,-9.451 6.282,-14.091c-0.05,7.049 -3.351,13.986 -2.748,21.069c-0.369,-4.302 5.602,-8.341 7.451,-12.324c-0.239,3.773 -3.676,7.265 -3.875,11.034c5.219,-0.988 10.444,-1.968 15.671,-2.946c-2.587,1.845 -22.615,6.215 -16.633,10.418c1.379,0.964 7.358,-1.736 12.759,-4.37c-0.637,-0.564 -1.109,-0.952 -1.109,-0.881c0.018,-2.305 1.861,-1.827 4.011,-0.551c1.421,-0.702 2.695,-1.334 3.748,-1.83c-2.744,-4.831 -6.8,-10.21 -8.74,-10.604c3.954,0.811 7.794,5.437 10.864,7.681c-0.899,-5.898 -1.691,-4.312 -5.096,-8.603c-0.792,-1.002 -10.832,-10.245 -6.79,-10.261c4.732,2.983 9.005,6.52 12.824,10.615c-0.073,-0.457 -5.953,-20.681 -0.097,-8.746c3.212,-3.03 -2.902,-22.854 1.628,-21.698c5.699,7.359 6.677,15.902 2.944,25.636c1.091,-2.784 2.942,-4.895 5.553,-6.321c0.042,1.859 -0.325,3.547 -1.046,5.086c1.2,-1.009 2.639,-1.717 4.338,-2.092c-3.274,4.997 -6.386,10.095 -9.345,15.289c2.438,-0.69 6.773,-9.183 9.104,-6.863c0.136,0.686 0.058,1.287 -0.147,1.832c0.876,-0.535 1.851,-0.779 2.952,-0.663c2.134,1.526 -2.378,5.02 -6.121,7.322c0.312,1.955 0.818,3.869 1.89,5.376c1.166,-1.373 2.87,-2.314 3.982,-3.727c0.031,1.009 0.068,2.026 0.102,3.041c1.085,-0.575 2.176,-1.149 3.264,-1.72c-0.49,0.493 -2.776,2.252 -4.493,4.081c1.782,-0.857 3.688,-1.47 5.722,-1.808c0.069,0.065 -2.81,2.965 -6.089,6.501c3.929,0.721 10.787,-5.597 13.938,-6.493c-0.713,0.621 -4.425,1.987 -1.489,2.752c-2.485,0.598 -4.865,1.484 -7.143,2.653c3.567,0 1.806,0.249 -1.87,1.633c0.265,1.007 4.009,0.519 5.089,0.438c-2.36,1.832 -10.138,-0.619 -10.578,3.227c1.749,0 8.724,-1.748 13.33,-1.106c1.209,-0.671 1.867,-1.154 1.602,-1.311c0.705,0.42 0.692,1.088 0.365,1.814l0.005,0c0.081,0.026 0.149,0.071 0.23,0.1c0.163,0.078 0.323,0.16 0.47,0.251c0.183,0.108 0.361,0.223 0.519,0.373c0.131,0.12 0.236,0.262 0.343,0.403c1.156,-0.498 2.333,-0.922 3.544,-1.253c-2.595,-1.085 -4.223,-2.307 -3.164,-3.515c1.117,3.641 24.627,3.893 30.082,4.126c-5.699,-1.541 -11.175,-3.641 -16.432,-6.305c1.707,-0.597 3.345,-0.71 4.921,-0.372c-1.185,-1.038 -1.767,-2.38 -1.701,-4.053c-0.097,0.118 18.777,1.432 14.303,7.742c2.747,1.578 5.89,3.785 9.046,4.401c0.021,-1.586 0.126,-2.981 0.2,-4.365c-1.783,-0.707 -3.361,-1.245 -4.195,-1.562c2.082,-0.695 3.426,-1.088 4.26,-1.345c-0.005,-0.278 -0.023,-0.577 -0.034,-0.868c-0.629,-0.209 -1.46,-0.537 -2.37,-1.116c-3.961,-0.341 -10.032,-1.982 -12.027,-4.457c-2.538,-0.265 -16.534,-6.373 -15.567,-9.256c1.169,-3.492 22.17,7.783 24.899,8.315c-0.052,-0.024 -10.224,-3.961 -7.387,-5.838c2.556,-0.233 4.761,0.81 6.603,3.13c-5.99,-10.313 2.491,1.13 5.217,2.058c-0.978,-13.05 -5.439,-3.02 -15.873,-12.156c-0.325,-4.189 6.467,-1.665 9.49,-1.295c1.633,1.048 -4.323,-4.449 -4.323,-4.197c0.045,-5.157 9.22,3.578 10.528,4.197c-0.354,-3.927 -8.494,-16.568 -11.508,-17.184c3.955,0.81 7.796,5.44 10.866,7.681c-0.899,-5.898 -1.694,-4.31 -5.096,-8.601c-0.792,-1.004 -10.833,-10.245 -6.79,-10.261c4.729,2.981 9.005,6.517 12.824,10.615c-0.073,-0.456 -5.953,-20.684 -0.097,-8.746c3.212,-3.033 -2.902,-22.854 1.628,-21.7c5.699,7.358 6.677,15.904 2.942,25.638c1.09,-2.787 2.941,-4.897 5.554,-6.321c0.04,1.856 -0.327,3.545 -1.046,5.084c1.201,-1.01 2.64,-1.715 4.336,-2.092c-3.271,4.996 -6.383,10.098 -9.343,15.288c2.438,-0.689 6.774,-9.183 9.105,-6.863c0.136,0.69 0.058,1.287 -0.15,1.832c0.879,-0.534 1.854,-0.778 2.955,-0.663c3.245,2.32 -8.879,9.202 -10.287,9.503c-2.981,1.906 -1.4,6.633 -1.429,9.81c0.855,-0.441 8.08,-9.306 4.997,-1.274c3.146,-2.944 6.834,-4.769 11.065,-5.474c0.092,0.092 -5.18,5.335 -9.56,10.36c0.233,1.736 0.364,3.733 0.734,5.65c6.847,-2.889 16.518,-7.175 15.616,-7.715c2.029,1.213 -1.696,4.438 -2.711,5.423c3.689,-2.474 7.718,-3.99 12.091,-4.543c-1.408,3.196 -3.883,5.107 -7.43,5.736c6.533,-1.24 -1.496,1.078 -8.493,3.316c-0.454,0.446 -2.166,1.78 -3.715,3.29c1.169,0.554 1.935,1.495 2.223,2.897c-0.456,1.004 -2.391,0.729 -4.719,0.249c-0.359,0.813 -0.327,1.515 0.383,1.961c2.441,1.526 6.756,-1.3 10.376,-3.628c-0.013,-0.029 -0.008,-0.053 -0.024,-0.081c0.016,0.026 0.014,0.055 0.027,0.081c1.793,-1.156 3.418,-2.189 4.553,-2.511c-0.713,0.621 -4.425,1.987 -1.489,2.752c-1.103,0.265 -2.176,0.608 -3.235,0.986c-0.566,0.854 -1.743,1.649 -1.394,2.566c3.09,-2.59 6.616,-4.252 10.57,-4.981c1.454,2.504 -7.38,6.161 -14.704,8.56c0.306,-0.042 0.621,-0.082 0.933,-0.121c7.586,-2.278 16.617,-5.377 16.138,-6.205c1.08,1.866 -3.332,4.27 -8.321,6.271c0.288,0.076 0.556,0.167 0.813,0.272c0.081,0.026 0.149,0.071 0.228,0.1c0.165,0.078 0.322,0.16 0.469,0.251c0.184,0.108 0.362,0.223 0.519,0.373c0.247,0.223 0.462,0.469 0.624,0.76c-0.17,-0.312 -0.393,-0.543 -0.624,-0.76c-0.155,-0.139 -0.333,-0.26 -0.519,-0.373c-0.152,-0.091 -0.301,-0.186 -0.469,-0.251c-0.076,-0.034 -0.152,-0.066 -0.228,-0.1c-0.338,-0.099 -0.703,-0.152 -1.088,-0.162c-2.441,0.964 -4.994,1.832 -7.097,2.487c-0.584,0.346 -1.158,0.706 -1.724,1.094c1.218,0.22 2.123,0.896 2.624,2.154c-0.205,0.745 -2.826,0.672 -5.909,0.328c-2.396,2.032 -4.14,4.029 -4.252,5.041c1.929,-0.721 3.709,0.213 5.426,1.044c2.087,-0.294 4.268,-0.619 6.397,-0.952c3.803,-4.949 5.133,-3.715 9.167,-1.617c2.968,-0.614 4.876,-1.162 4.666,-1.518c0.401,0.684 -0.844,1.56 -2.758,2.448c0.535,0.241 1.096,0.485 1.718,0.724c1.829,-0.388 3.418,-0.635 4.53,-0.64c1.101,-0.459 2.527,-0.983 4.165,-1.552c1.243,-2.32 3.211,-3.856 6.001,-4.501c-5.233,-0.385 -2.024,-0.55 0.005,-2.695c-2.286,1.154 -3.555,0.59 -3.806,-1.693l-0.124,0.854c-2.865,0.173 -5.644,-0.236 -8.339,-1.219c9.666,-0.888 14.927,-2.48 22.152,-2.857c1.188,-0.236 2.517,-0.414 3.979,-0.54c-6.121,-2.994 -13.901,-10.683 -12.048,-11.396c-0.771,0.189 -1.539,0.307 -2.304,0.375c-1.589,0.498 -2.603,1.043 -2.837,1.636c-0.036,0.147 -0.078,0.296 -0.042,0.438c-0.039,-0.15 -0.013,-0.297 0.042,-0.438c0.121,-0.503 0.616,-1.041 1.426,-1.602c-1.57,-0.016 -3.124,-0.267 -4.669,-0.807c0.433,-0.04 4.323,-0.619 8.832,-1.343c2.9,-1.239 6.405,-2.427 9.325,-3.352c-0.836,-0.215 -1.665,-0.459 -2.49,-0.729c-4.331,0.084 -8.623,-0.553 -12.875,-1.914c0,-0.603 2.242,-1.156 5.925,-1.67c1.305,-1.851 -1.573,-1.502 -5.817,-0.28c0.996,-0.548 1.99,-1.096 2.988,-1.644c-0.899,-0.516 -1.795,-1.035 -2.689,-1.552c1.339,0.081 13.915,0.585 12.014,-1.617c2.215,0.726 8.402,4.807 10.698,2.118c-2.826,-1.392 -5.649,-2.779 -8.472,-4.166c1.03,-0.215 1.206,-0.723 0.529,-1.52c3.371,0.225 6.737,0.506 10.111,0.715c-2.883,-0.503 -5.678,-1.531 -8.54,-2.133c3.953,-1.214 7.909,-2.425 11.862,-3.636c-4.428,0.249 -8.858,0.498 -13.286,0.747c-3.361,0.437 -5.817,0.975 -6.42,1.63c-0.047,0.142 -0.11,0.268 -0.152,0.412c-0.039,-0.142 0.029,-0.278 0.152,-0.412c0.157,-0.472 0.351,-0.904 0.577,-1.303c-0.273,0.016 -0.551,0.032 -0.823,0.048c0.28,-0.003 0.574,-0.063 0.865,-0.118c1.048,-1.817 2.789,-2.879 5.224,-3.18c-4.705,0.042 -8.884,-1.479 -12.538,-4.538c-0.346,-0.068 -0.525,-0.192 -0.475,-0.378c0.155,0.134 0.317,0.247 0.475,0.378c1.646,0.338 7.479,-0.582 14.615,-2.105c-2.614,-1.266 -4.426,-2.963 -3.537,-5.382c0.102,-0.312 0.262,-0.653 0.511,-1.044c-0.23,0.365 -0.39,0.708 -0.511,1.044c-1.45,4.393 10.654,1.478 10.798,1.476c-0.419,-2.984 -3.67,-5.036 -5.487,-7.561c-5.767,0.323 -11.773,0.787 -12.051,1.369c0.011,0.047 0.013,0.084 0.026,0.131c-0.044,-0.045 -0.047,-0.087 -0.026,-0.131c-0.569,-2.257 0.498,-3.495 3.225,-3.71c-6.145,-0.561 2.322,-1.654 15.451,-2.881c-3.201,-1.717 -7.102,-2.993 -8.599,-3.57c9.959,-3.329 3.77,0.05 -0.742,-5.71c3.694,1.772 7.385,3.55 11.079,5.319c4.666,-3.311 -6.981,-3.594 -5.718,-3.72c3.018,-2.6 6.184,-1.874 4.093,-6.96c1.669,1.198 2.799,2.779 3.376,4.745c0.401,-3.382 1.159,-6.672 2.289,-9.886c0.416,3.094 0.506,7.034 2.217,9.821c0.367,-0.192 0.782,-0.373 1.256,-0.546c1.015,-0.896 2.165,-1.688 2.994,-2.736c0.021,0.634 0.042,1.266 0.065,1.9c6.992,-1.471 18.021,-1.762 20.432,-2.294c-1.35,-0.118 -15.472,-0.553 -14.523,-4.018c-0.217,0.807 33.33,0.705 36.709,0.015c-0.894,-0.018 -24.605,-1.069 -21.837,-5.806c-0.071,0.12 5.586,0.839 11.592,1.552c-0.238,-0.124 -0.456,-0.302 -0.621,-0.59c0.679,-4.79 4.055,-7.797 10.137,-9.037c-4.136,-0.222 -37.862,1.204 -37.862,1.403c0.954,-1.382 2.173,-2.281 3.647,-2.705c-5.474,-0.567 -10.316,-2.813 -14.516,-6.788c7.435,-1.043 14.762,-0.652 21.982,1.157c-0.42,-0.32 -0.813,-0.693 -1.146,-1.183c0.005,-2.773 13.301,1.366 16.274,1.057c-4.524,-1.342 12.927,0.849 16.61,1.664c4.36,-26.626 -8.313,0.716 -14.513,-9.851c0.383,-2.126 1.416,-3.584 3.031,-4.444c-9.87,0.559 -24.047,1.657 -24.05,1.77c3.959,-3.033 8.431,-4.231 13.396,-3.644c-5.801,-0.771 -28.6,-4.687 -26.899,-7.587c1.368,-2.343 22.807,4.488 26.721,4.845c-2.582,-0.682 -21.919,-5.529 -20.026,-8.764c9.791,-16.696 38.932,33.115 42.5,-4.716c-1.964,0.118 -21.142,3.998 -21.803,1.612c1.096,-2.755 3.481,-3.646 7.151,-2.676c-2.831,-0.53 -29.908,-8.326 -26.909,-13.504c-1.028,1.775 30.918,11.441 34.64,11.69c-4.328,-0.422 -34.522,-9.435 -31.474,-14.675c5.278,0.975 9.986,3.193 14.12,6.653c0.535,-1.463 -1.84,-2.719 -2.181,-4.147c-0.021,-0.068 -0.04,-0.131 -0.045,-0.2c-0.008,-0.076 -0.01,-0.152 -0.005,-0.23c0.01,-0.199 0.055,-0.396 0.173,-0.598c-0.118,0.205 -0.157,0.401 -0.173,0.598c-0.003,0.076 -0.005,0.154 0.005,0.23c0.003,0.069 0.026,0.132 0.045,0.2c1.36,4.456 27.649,7.694 27.552,7.694c2.459,-18.605 -16.183,0.348 -19.394,-6.719c0.71,-3.471 3.439,-4.997 8.192,-4.572c-3.256,-1.772 -37.978,-10.743 -21.528,-8.127c-4.737,-0.833 -8.045,-3.387 -9.925,-7.657c5.844,0.742 11.226,2.766 16.151,6.066c-1.36,-1.311 -6.333,-5.62 -3.62,-7.243c-1.806,1.08 27.812,13.283 29.495,13.826c-0.556,-5.87 -22.194,-23.13 -20.43,-24.905c5.655,0.947 10.581,3.382 14.778,7.314c-4.808,-12.499 6.163,0.645 6.669,1.636c-0.079,-4.836 -5.408,-18.505 -10.463,-23.929c0.477,0.469 0.928,1.025 1.345,1.67c-1.358,-0.655 -2.176,-1.533 -2.577,-2.582c-1.169,-0.721 -2.474,-1.046 -3.943,-0.889c1.141,-0.815 2.462,-0.495 3.841,0.572c-0.181,-0.65 -0.252,-1.345 -0.094,-2.137c2.878,-2.865 9.293,8.344 12.158,9.168c-3.906,-6.861 -8.03,-13.598 -12.345,-20.21c-19.003,4.465 -36.239,11.045 -54.244,18.432c-24.138,9.909 -48.099,18.537 -73.035,26.703c-19.178,6.284 -43.055,7.788 -63.264,11.511c-8.074,1.486 -16.815,2.514 -23.94,6.286c-13.799,7.309 -31.951,0.855 -45.892,-2.593c-21.281,-5.261 -41.616,-14.339 -62.808,-20.287c-23.872,-6.703 -47.402,-15.205 -71.119,-22.448c-23.921,-7.296 -43.818,-16.096 -63.265,-30.562c-7.702,-5.728 -15.076,-11.904 -22.516,-17.912c-0.317,-0.257 -0.631,-0.514 -0.949,-0.771c-5.961,-4.792 -11.639,-11.826 -18.447,-15.574c-13.527,-7.456 -27.106,-15.09 -40.327,-22.823c-11.173,-6.528 -33.822,-10.971 -46.225,-5.002c-19.113,9.207 -37.739,19.499 -55.869,30.152c-25.751,15.134 -35.731,-15.54 -58.575,-17.936c-17.008,-1.785 -34.04,0.682 -48.799,8.46c-22.443,11.82 -47.785,19.457 -72.962,25.116c-16.678,3.752 -34.035,7.023 -51.224,9.849c-5.66,0.931 -11.304,1.814 -16.898,2.651c-11.128,1.659 -20.943,3.339 -32.475,3.339" style="fill:#7dab87;fill-rule:nonzero;"/><rect x="-38.605" y="971.825" width="2055.58" height="168.539" style="fill:#7dab87;"/></g></g></g></g><path d="M1659.93,822.005c0.22,-0.205 0.398,-0.341 0.501,-0.341c-0.171,0.108 -0.333,0.231 -0.501,0.341c-2.871,2.679 -14.893,21.675 -15.373,24.849c1.314,-0.957 10.269,-9.39 14.505,-10.255c-4.024,0.823 -14.89,17.708 -15.365,22.948c1.954,-0.917 14.005,-12.224 14.062,-5.604c-0.005,-0.333 -7.956,7.004 -5.772,5.61c-0.27,0.036 20.073,1.447 11.073,2.419c-14.597,6.588 -18.558,1.211 -19.598,15.546c3.591,-1.264 15.018,-16.51 6.962,-2.747c2.464,-3.11 5.411,-4.499 8.827,-4.184c3.785,2.511 -9.802,7.767 -9.878,7.799c4.176,-0.821 31.767,-15.567 33.264,-11.108c-5.895,5.851 -12.827,9.972 -20.793,12.366c-9.205,11.393 -19.164,0.789 -18.917,18.314c15.265,-2.994 7.759,-8.227 10.502,-11.383c0.057,-0.094 0.141,-0.199 0.288,-0.325c-0.121,0.102 -0.194,0.215 -0.288,0.325c-1.395,2.273 21.362,-4.003 20.678,-4.834c0.089,2.234 -0.687,4.024 -2.268,5.411c2.105,-0.451 4.294,-0.302 6.572,0.493c-7.023,3.56 -14.337,6.367 -21.944,8.423c2.713,-0.113 18.481,-1.943 29.348,-3.833c-1.078,-1.143 -1.482,-2.244 -0.902,-3.251c-0.278,0.48 1.413,1.437 4.262,2.63c1.322,-0.26 2.52,-0.519 3.531,-0.768c-3.143,-1.974 -4.849,-3.901 -3.9,-5.527c6.475,1.198 12.258,3.922 17.33,8.172c0.784,-2.066 -3.151,-3.754 -2.674,-5.846c0.008,-0.176 0.053,-0.346 0.147,-0.506c-0.099,0.173 -0.107,0.338 -0.147,0.506c-0.228,5.19 36.154,15.778 34.589,4.946c-1.469,-10.142 -22.475,1.613 -24.569,-3.001c0.868,-4.255 4.22,-6.124 10.053,-5.6c-5.882,-3.237 -42.277,-12.987 -26.432,-9.982c-5.817,-1.028 -9.875,-4.163 -12.185,-9.406c7.172,0.915 13.779,3.397 19.829,7.453c-1.667,-1.618 -7.775,-6.903 -4.449,-8.895c-2.202,1.316 34.137,16.303 36.219,16.974c-0.577,-6.061 -25.334,-30.328 -25.083,-30.582c6.94,1.161 12.987,4.155 18.144,8.986c-5.054,-13.181 6.792,1.363 8.197,2.084c-0.044,-5.211 2.543,-12.96 -2.343,-16.083c-2.307,-0.498 -22.194,-11.781 -16.867,-15.587c1.748,-0.186 3.321,0.149 4.726,0.975c-0.293,-0.86 -0.338,-1.822 -0.12,-2.894c3.814,-3.804 10.929,10.127 14.924,11.254c-4.847,-8.515 -9.956,-16.875 -15.325,-25.075c2.739,0.611 5.08,1.725 7.033,3.338c-1.145,-2.493 -1.701,-5.236 -1.636,-8.242c4.287,2.341 7.32,5.796 9.108,10.365c-1.948,-5.075 -3.107,-9.951 -3.49,-14.636c-0.464,0.254 -0.925,0.514 -1.389,0.763c-10.468,5.584 -22.12,9.207 -33.928,11.786c-11.705,2.554 -25.328,1.673 -37.361,2.59c-4.863,0.373 -9.705,1.02 -14.523,1.804c-0.396,3.681 -2.963,12.848 -3.285,14.856c4.97,-5.314 10.515,-9.917 16.631,-13.831" style="fill:#7dab87;fill-rule:nonzero;"/></g></g><path d="M4.078,959.941l248.474,-80.899l139.647,-40.449l154.093,0.963l103.05,-2.889l217.656,-40.45l99.198,-3.852l310.112,108.828l208.988,3.853l140.61,-78.973l38.207,-6.308l26.473,-1.862c0,0 29.885,-5.377 37.434,-10.341c7.549,-4.963 10.962,-6.308 19.752,-11.168c4.432,-2.451 16.4,-0.215 35.265,-14.194c19.908,-14.753 31.922,-28.164 47.771,-34.777c4.191,-1.749 21.945,-3.641 29.275,-4.015c1.512,-0.078 6.448,0.528 6.448,0.528c18.842,3.501 45.59,15.572 54.29,23.106c10.707,9.272 51.67,493.115 51.67,493.115c-525.293,-58.943 -1433.7,42.02 -2145.79,-2.495c-389.642,-142.977 -159.715,-236.856 177.375,-297.721Z" style="fill:#7dab87;stroke:#7dab87;stroke-width:1px;"/></g><rect x="1598.37" y="840.519" width="427.608" height="158.908" style="fill:#7dab87;"/></g></svg>