<?xml version="1.0" encoding="UTF-8" standalone="no"?><!DOCTYPE svg PUBLIC "-//W3C//DTD SVG 1.1//EN" "http://www.w3.org/Graphics/SVG/1.1/DTD/svg11.dtd"><svg width="100%" height="100%" viewBox="0 0 1920 1080" version="1.1" xmlns="http://www.w3.org/2000/svg" xmlns:xlink="http://www.w3.org/1999/xlink" xml:space="preserve" xmlns:serif="http://www.serif.com/" style="fill-rule:evenodd;clip-rule:evenodd;stroke-linecap:round;stroke-linejoin:round;stroke-miterlimit:1.5;"><g><g><path d="M1231.35,842.785c23.717,7.243 47.248,15.745 71.119,22.448c21.192,5.948 41.53,15.026 62.808,20.288c13.942,3.447 32.093,9.901 45.892,2.592c7.128,-3.772 15.866,-4.8 23.943,-6.286c20.209,-3.722 44.083,-5.23 63.262,-11.511c24.935,-8.166 48.898,-16.793 73.035,-26.703c18.004,-7.387 35.24,-13.967 54.244,-18.431c-0.045,-0.068 -0.087,-0.142 -0.134,-0.21c0.163,0.037 0.312,0.089 0.472,0.131c1.166,-0.275 2.317,-0.566 3.5,-0.823c0.002,0 0.005,0 0.007,-0.003c-0.597,-1.536 -0.655,-2.813 0.417,-3.3c1.896,0.204 3.437,0.965 4.648,2.246c0.611,-0.128 1.219,-0.262 1.835,-0.382c-1.363,-11.024 -2.849,-31.576 5.799,-28.59c7.639,2.634 -3.298,19.362 -0.246,27.538c1.006,-0.183 2.008,-0.385 3.017,-0.558c1.468,-2.553 1.822,-2.1 1.62,-0.249c4.818,-0.786 9.66,-1.434 14.523,-1.806c12.033,-0.915 25.659,-0.037 37.362,-2.59c11.807,-2.58 23.462,-6.2 33.927,-11.786c0.467,-0.25 0.926,-0.509 1.39,-0.761c-0.664,-8.098 1.014,-15.605 5.028,-22.526c-11.249,-0.21 -22.021,-1.979 -30.635,-8.759c-6.724,-5.285 -12.694,-12.546 -20.091,-16.882c-9.621,-5.634 -19.591,-5.723 -28.491,-13.826c-9.22,-8.386 -26.312,-9.626 -36.832,-2.108c-14.174,10.122 -24.988,23.423 -40.235,32.449c-9.524,5.639 -17.008,10.866 -28.724,9.598c-9.529,-1.041 -18.135,-2.184 -27.449,0.592c-6.158,1.84 -11.433,7.429 -15.805,11.826c-12.319,12.381 -24.721,9.571 -39.892,6.255c-8.263,-1.804 -16.932,1.376 -25.19,1.478c-12.279,0.155 -23.855,9.052 -36.056,7.246c-17.281,-2.564 -35.996,-22.66 -48.154,-33.854c-4.312,-3.969 -10.491,-5.17 -15.884,-6.892c-9.057,-2.905 -14.607,-10.324 -23.072,-13.467c-8.493,-3.153 -18.098,-1.641 -27.09,-1.982c-8.827,-0.335 -17.024,-0.22 -25.507,2.357c-8.659,2.632 -16.335,10.638 -24.905,14.106c-10.701,4.331 -28.776,-0.485 -40.31,-0.61c-20.317,-0.223 -30.583,8.276 -46.333,19.865c-3.633,2.674 -7.977,4.342 -12.593,5.406c7.439,6.008 14.816,12.185 22.516,17.913c19.446,14.465 39.343,23.265 63.264,30.561" style="fill:#accfa8;fill-rule:nonzero;"/><path d="M108.177,765.589c2.55,3.953 -31.652,9.298 -40.243,10.334c7.437,-0.813 14.133,0.815 20.062,4.955c0,-0.155 -21.181,-1.649 -35.933,-2.41c2.412,1.172 3.956,3.157 4.528,6.051c-9.267,14.379 -28.2,-22.836 -21.688,13.409c5.503,-1.112 31.587,-4.098 24.823,-2.268c4.446,0.422 24.307,-5.214 24.315,-1.434c-0.496,0.663 -1.081,1.169 -1.707,1.605c10.787,-2.462 21.735,-2.989 32.837,-1.571c-6.271,5.403 -13.506,8.465 -21.688,9.236c2.205,0.582 4.027,1.801 5.455,3.683c0,-0.273 -50.398,-2.212 -56.574,-1.914c9.081,1.689 14.132,5.786 15.144,12.303c-0.251,0.396 -0.574,0.634 -0.936,0.802c8.979,-0.97 17.433,-1.948 17.329,-2.113c4.134,6.447 -31.293,7.881 -32.628,7.907c5.039,0.938 55.172,1.075 54.842,-0.021c1.424,4.718 -19.677,5.311 -21.701,5.473c5.377,1.075 39.331,1.403 39.331,7.435c-8.3,3.337 -16.689,3.492 -25.188,0.451c26.386,12.195 -6.716,6.454 -16.13,0.419c2.517,2.234 3.039,4.378 1.602,6.436c38.043,2.871 88.423,6.41 72.401,7.741c4.076,0.291 5.673,1.974 4.818,5.047c0.029,0.058 0.026,0.118 -0.039,0.175c0.018,-0.06 0.021,-0.115 0.039,-0.175c-0.781,-1.5 -32.423,-2.43 -33.844,-2.564c2.936,0.697 5.605,1.84 8.043,3.392c0.435,0.144 0.716,0.302 0.771,0.48c-0.249,-0.173 -0.517,-0.315 -0.771,-0.48c-5.322,-1.759 -36.916,-1.221 -41.147,-1.518c7.799,5.865 66.379,18.613 73.436,17.302c0.233,-0.181 0.475,-0.333 0.705,-0.519c0.076,0.257 -0.188,0.422 -0.705,0.519c-5.463,4.163 -11.705,6.237 -18.738,6.174c4.475,0.508 7.387,2.574 8.734,6.197c0.184,0.184 0.286,0.367 0.229,0.561c-0.063,-0.199 -0.155,-0.367 -0.229,-0.561c-3.489,-3.442 -48.447,-4.506 -51.533,-4.629c9.175,1.667 16.783,5.714 22.828,12.14c-1.806,2.786 -29.751,-6.444 -45.302,-11.378c2.501,1.524 4.082,3.615 4.719,6.292c0.679,0.231 0.857,0.731 0.301,1.602c-0.052,-0.564 -0.178,-1.083 -0.301,-1.602c-4.347,-1.478 -29.854,8.391 -23.759,7.133c10.331,1.143 106.344,3.767 106.344,8.15c-10.229,2.981 -20.613,3.416 -31.149,1.303c1.974,0.569 9.886,2.619 17.168,5.068c6.677,-2.069 13.307,-4.266 19.924,-6.496c-5.579,-2.769 -10.895,-6.211 -10.174,-8.358c0.92,-2.752 10.795,1.162 19.768,5.146c1.287,-0.43 2.572,-0.862 3.862,-1.287c0.11,-0.157 0.246,-0.309 0.459,-0.448c0.346,-0.032 0.681,-0.034 1.019,-0.032c3.28,-1.074 6.575,-2.118 9.881,-3.13c-3.503,-0.521 -8.819,0.273 -16.474,-6.425c-0.448,-5.767 8.9,-2.294 13.053,-1.783c2.249,1.44 -5.943,-6.123 -5.943,-5.777c0.06,-7.094 12.683,4.925 14.484,5.777c-0.488,-5.405 -11.687,-22.796 -15.832,-23.643c5.44,1.114 10.725,7.482 14.948,10.57c-1.235,-8.116 -2.33,-5.933 -7.015,-11.836c-1.088,-1.379 -14.901,-14.096 -9.34,-14.117c6.509,4.105 12.394,8.968 17.645,14.602c-0.1,-0.627 -8.19,-28.454 -0.131,-12.03c4.417,-4.171 -3.995,-31.445 2.241,-29.854c7.836,10.122 9.183,21.879 4.045,35.27c1.5,-3.833 4.048,-6.732 7.642,-8.696c0.055,2.525 -0.412,4.826 -1.376,6.918c1.638,-1.352 3.604,-2.291 5.903,-2.799c-4.504,6.873 -8.784,13.891 -12.858,21.032c3.353,-0.946 9.322,-12.633 12.525,-9.443c0.192,0.947 0.084,1.772 -0.202,2.522c1.206,-0.739 2.551,-1.069 4.061,-0.912c4.47,3.19 -12.211,12.659 -14.148,13.073c-4.1,2.622 -1.927,9.123 -1.964,13.498c1.177,-0.608 11.116,-12.806 6.874,-1.753c4.325,-4.051 9.398,-6.562 15.223,-7.532c0.071,0.071 -2.278,2.47 -5.411,5.783c20.089,-5.193 38.704,-10.696 58.203,-18.833c41.467,-17.299 86.764,-25.905 128.474,-42.444c20.16,-7.993 41.533,-10.431 63.509,-11.255c20.856,-0.783 44.138,-0.865 64.842,1.794c11.692,1.502 24.375,3.756 35.619,7.004c11.466,3.311 23.213,8.523 35.555,8.106c21.738,-0.729 42.757,-11.273 63.603,-16.526c11.189,-2.816 21.638,-4.121 33.275,-4.121c11.532,0 21.347,-1.678 32.475,-3.34c5.594,-0.836 11.238,-1.717 16.901,-2.65c-0.032,-0.019 -0.063,-0.037 -0.095,-0.055c-8.585,-5.592 -17.684,-10.287 -26.938,-14.733c-9.202,-4.417 -18.511,-11.469 -28.527,-12.906c-4.543,-0.655 -8.832,-0.569 -13.43,-1.402c-5.18,-0.939 -12.046,-8.255 -16.82,-11.768c-8.145,-5.993 -13.432,-14.827 -21.016,-21.52c-14.094,-12.434 -35.029,-11.765 -50.886,-21.564c-8.583,-5.306 -18.319,-8.159 -26.525,-13.955c-7.293,-5.151 -15.949,-11.949 -24.437,-14.756c-20.964,-6.931 -42.516,-12.104 -63.456,-19.245c-11.58,-3.945 -21.57,-9.807 -30.056,-18.631c-6.145,-6.386 -8.391,-11.579 -16.764,-15.325c-5.023,-2.244 -7.398,-0.813 -11.787,1.416c-10.858,5.51 -20.382,12.945 -31.935,17.711c-17.637,7.293 -37.243,0.385 -53.874,10.829c-6.64,4.173 -12.007,10.968 -17.661,16.298c-9.957,9.385 -23.436,15.865 -34.989,23.056c-20.304,12.636 -35.199,30.163 -59.354,36.187c-16.982,4.234 -32.16,-13.556 -50.474,-11.105c-13.687,1.83 -20.133,14.851 -28.139,24.244c-9.6,11.265 -24.207,5.469 -36.568,4.643c-4.042,-0.273 -8.034,-0.178 -11.964,-0.1c-6.074,3.972 -25.169,8.342 -28.249,9.086c5.853,-0.49 37.883,-9.783 39.928,-6.598" style="fill:#accfa8;fill-rule:nonzero;"/></g><path d="M-12.186,794.091c0,0 37.081,-18.146 50.887,-19.329l13.807,-1.183l44.576,-10.651c0,0 27.613,1.972 39.053,2.366c11.44,0.395 -18.935,7.496 12.229,0c31.164,-7.495 323.077,-27.218 323.077,-27.218l247.513,68.296l103.726,31.3l497.205,-34.714l110.279,32.612l204.173,-59.711l103.666,6.824c49.977,5.08 78.651,-24.22 121.992,-3.395c52.456,25.205 82.051,22.091 82.051,22.091l64.794,413.089l-2061.59,4.515l42.566,-424.892Z" style="fill:#accfa8;stroke:#accfa8;stroke-width:1px;"/></g></svg>